<svg width="23" height="23" viewBox="0 0 23 23" fill="none" xmlns="http://www.w3.org/2000/svg">
<path fill-rule="evenodd" clip-rule="evenodd" d="M9.50296 2.40794C9.50296 2.40794 9.50295 2.40795 9.50295 2.40795L3.98099 6.11075C2.90764 6.8305 2.25205 8.1183 2.25205 9.50699V17.1958C2.25205 19.3891 3.85903 21.1671 5.84133 21.1671H16.8853C18.8675 21.1671 20.4745 19.3891 20.4745 17.1958V9.50699C20.4745 8.1183 19.819 6.8305 18.7456 6.11075L19.1687 5.33823L18.7456 6.11075L13.2236 2.40795C13.2236 2.40795 13.2236 2.40794 13.2236 2.40794C12.0802 1.64121 10.6464 1.64121 9.50296 2.40794ZM8.64436 0.840448C10.3156 -0.280149 12.411 -0.280151 14.0822 0.84045L14.0822 0.840456L19.6042 4.54326L19.1749 5.32701L19.6042 4.54326C21.173 5.59521 22.1311 7.47739 22.1311 9.50699V17.1958C22.1311 20.4013 19.7824 23 16.8853 23H5.84133C2.94411 23 0.595459 20.4013 0.595459 17.1958V9.50699C0.595459 7.47738 1.55363 5.59521 3.12238 4.54326L3.53963 5.305L3.12238 4.54326L8.64435 0.840456L8.64436 0.840448Z" fill="#1F1F1F"/>
<path fill-rule="evenodd" clip-rule="evenodd" d="M7.22168 17.196C7.22168 16.6898 7.59252 16.2795 8.04997 16.2795H14.6763C15.1338 16.2795 15.5046 16.6898 15.5046 17.196C15.5046 17.7021 15.1338 18.1124 14.6763 18.1124H8.04997C7.59252 18.1124 7.22168 17.7021 7.22168 17.196Z" fill="#1F1F1F"/>
</svg>
