<svg width="23" height="23" viewBox="0 0 23 23" fill="none" xmlns="http://www.w3.org/2000/svg">
<path fill-rule="evenodd" clip-rule="evenodd" d="M0 3.1062C0 1.39069 1.39069 0 3.1062 0H18.9196C20.6351 0 22.0258 1.3907 22.0258 3.1062V18.9196C22.0258 20.6351 20.6351 22.0258 18.9196 22.0258H3.1062C1.3907 22.0258 0 20.6351 0 18.9196V3.1062ZM3.1062 1.69429C2.32642 1.69429 1.69429 2.32642 1.69429 3.1062V18.9196C1.69429 19.6994 2.32641 20.3315 3.1062 20.3315H18.9196C19.6994 20.3315 20.3315 19.6994 20.3315 18.9196V3.1062C20.3315 2.32641 19.6994 1.69429 18.9196 1.69429H3.1062Z" fill="#000000"/>
<path fill-rule="evenodd" clip-rule="evenodd" d="M4.51807 5.36521C4.51807 4.89735 4.89735 4.51807 5.36521 4.51807H16.6605C17.1283 4.51807 17.5076 4.89735 17.5076 5.36521C17.5076 5.83308 17.1283 6.21236 16.6605 6.21236H5.36521C4.89735 6.21236 4.51807 5.83308 4.51807 5.36521Z" fill="#000000"/>
<path fill-rule="evenodd" clip-rule="evenodd" d="M4.51807 11.0128C4.51807 10.5449 4.89735 10.1656 5.36521 10.1656H16.6605C17.1283 10.1656 17.5076 10.5449 17.5076 11.0128C17.5076 11.4807 17.1283 11.8599 16.6605 11.8599H5.36521C4.89735 11.8599 4.51807 11.4807 4.51807 11.0128Z" fill="#000000"/>
<path fill-rule="evenodd" clip-rule="evenodd" d="M4.51807 16.6605C4.51807 16.1926 4.89735 15.8134 5.36521 15.8134H12.1424C12.6102 15.8134 12.9895 16.1926 12.9895 16.6605C12.9895 17.1284 12.6102 17.5076 12.1424 17.5076H5.36521C4.89735 17.5076 4.51807 17.1284 4.51807 16.6605Z" fill="#000000"/>
</svg>
