<svg width="24" height="24" viewBox="0 0 24 24" fill="none" xmlns="http://www.w3.org/2000/svg">
<path d="M11.9 23.8C5.33827 23.8 0 18.4617 0 11.9C0 5.33827 5.33827 0 11.9 0C18.4617 0 23.8 5.33827 23.8 11.9C23.8 18.4617 18.4617 23.8 11.9 23.8ZM11.9 1.69181C6.2702 1.69181 1.69181 6.2702 1.69181 11.9C1.69181 17.5298 6.2702 22.1082 11.9 22.1082C17.5298 22.1082 22.1082 17.5298 22.1082 11.9C22.1082 6.2702 17.5298 1.69181 11.9 1.69181ZM11.0541 18.8871V17.1953H12.7459V18.8871H11.0541ZM11.0684 15.2024C11.1879 13.4341 12.1485 12.6981 13.0804 11.986C13.8977 11.36 14.7388 10.7148 14.7388 9.44353C14.7388 7.87598 13.4628 6.60474 11.9 6.60474C10.4663 6.60474 9.27149 7.67526 9.0851 9.0612H7.38373C7.57968 6.74333 9.52956 4.91293 11.9 4.91293C14.3995 4.91293 16.4306 6.94406 16.4306 9.44353C16.4306 10.8438 15.5656 11.6037 14.648 12.4066C13.7925 13.1521 12.918 13.9216 12.7698 15.2024H11.0684Z" fill="#000000"/>
</svg>
