<svg width="21" height="21" viewBox="0 0 21 21" fill="none" xmlns="http://www.w3.org/2000/svg">
<path d="M12.7283 6.31167L11.0833 4.66667L5.25 10.5L11.0833 16.3333L12.7283 14.6883L9.71833 11.6667L21 11.6667L21 9.33333L9.71833 9.33333L12.7283 6.31167ZM2.33333 21L18.6667 21C19.9617 21 21 19.95 21 18.6667L21 14L18.6667 14L18.6667 18.6667L2.33333 18.6667L2.33333 2.33333L18.6667 2.33334L18.6667 7L21 7L21 2.33334C21 1.05 19.9617 2.77025e-06 18.6667 2.65704e-06L2.33333 1.22913e-06C1.05 1.11694e-06 3.13573e-07 1.05 2.0138e-07 2.33333L-1.22653e-06 18.6667C-1.33872e-06 19.95 1.05 21 2.33333 21Z" fill="#EB5757"/>
</svg>
