<svg width="155" height="155" viewBox="0 0 155 155" fill="none" xmlns="http://www.w3.org/2000/svg">
<circle cx="77.5" cy="77.5" r="77.5" fill="white"/>
<path d="M77.5003 12.9167C41.8503 12.9167 12.917 41.8501 12.917 77.5001C12.917 113.15 41.8503 142.083 77.5003 142.083C113.15 142.083 142.084 113.15 142.084 77.5001C142.084 41.8501 113.15 12.9167 77.5003 12.9167ZM77.5003 32.2917C88.2212 32.2917 96.8753 40.9459 96.8753 51.6667C96.8753 62.3876 88.2212 71.0417 77.5003 71.0417C66.7795 71.0417 58.1253 62.3876 58.1253 51.6667C58.1253 40.9459 66.7795 32.2917 77.5003 32.2917ZM77.5003 124C61.3545 124 47.0816 115.733 38.7503 103.204C38.9441 90.3522 64.5837 83.3126 77.5003 83.3126C90.3524 83.3126 116.057 90.3522 116.25 103.204C107.919 115.733 93.6462 124 77.5003 124Z" fill="#BDBDBD"/>
</svg>
