<svg width="11" height="16" viewBox="0 0 11 16" fill="none" xmlns="http://www.w3.org/2000/svg">
<path d="M5.5 0C2.45929 0 0 2.504 0 5.6C0 6.992 0.392857 8.296 1.10786 9.472C1.85429 10.704 2.83643 11.76 3.59071 12.992C3.96 13.592 4.22714 14.152 4.51 14.8C4.71429 15.24 4.87929 16 5.5 16C6.12071 16 6.28571 15.24 6.48214 14.8C6.77286 14.152 7.03214 13.592 7.40143 12.992C8.15571 11.768 9.13786 10.712 9.88429 9.472C10.6071 8.296 11 6.992 11 5.6C11 2.504 8.54071 0 5.5 0ZM5.5 7.8C4.41571 7.8 3.53571 6.904 3.53571 5.8C3.53571 4.696 4.41571 3.8 5.5 3.8C6.58429 3.8 7.46429 4.696 7.46429 5.8C7.46429 6.904 6.58429 7.8 5.5 7.8Z" fill="#828282"/>
</svg>
