<svg width="40" height="40" viewBox="0 0 40 40" fill="none" xmlns="http://www.w3.org/2000/svg">
<circle cx="20" cy="20" r="20" fill="#FFCC00"/>
<path d="M27.0835 9.33331H14.2502C13.7439 9.33331 13.3335 9.75304 13.3335 10.2708V10.8958C13.3335 11.4136 13.7439 11.8333 14.2502 11.8333C14.2502 15.3866 16.1987 18.3854 18.8657 19.3333C16.1987 20.2812 14.2502 23.28 14.2502 26.8333C13.7439 26.8333 13.3335 27.253 13.3335 27.7708V28.3958C13.3335 28.9136 13.7439 29.3333 14.2502 29.3333H27.0835C27.5898 29.3333 28.0002 28.9136 28.0002 28.3958V27.7708C28.0002 27.253 27.5898 26.8333 27.0835 26.8333C27.0835 23.28 25.135 20.2812 22.468 19.3333C25.135 18.3854 27.0835 15.3866 27.0835 11.8333C27.5898 11.8333 28.0002 11.4136 28.0002 10.8958V10.2708C28.0002 9.75304 27.5898 9.33331 27.0835 9.33331ZM24.6391 26.8333H16.6946C16.6946 23.8076 18.4593 21.2083 20.6668 21.2083C22.8739 21.2083 24.6391 23.8066 24.6391 26.8333Z" fill="black"/>
</svg>
