<svg width="40" height="40" viewBox="0 0 40 40" fill="none" xmlns="http://www.w3.org/2000/svg">
<circle cx="20" cy="20" r="20" fill="#FFCC00"/>
<path d="M29.5644 17.0634C29.7127 17.0634 29.8313 17.1289 29.9173 17.2583C30.0033 17.3893 30.0225 17.5312 29.9736 17.6887L29.6771 18.6258C29.6281 18.8347 29.4917 18.9376 29.2679 18.9376H28.19C28.5621 19.1715 28.8586 19.4787 29.081 19.856C29.3034 20.2334 29.4146 20.6575 29.4146 21.1253V23.001C29.4146 23.6263 29.216 24.1736 28.8201 24.6414V27.0629C28.8201 27.3233 28.7341 27.5447 28.5606 27.7271C28.3872 27.9096 28.1766 28 27.929 28H26.1454C25.8978 28 25.6873 27.9096 25.5138 27.7271C25.3403 27.5447 25.2543 27.3233 25.2543 27.0629V25.5005H15.7446V27.0629C15.7446 27.3233 15.6586 27.5447 15.4851 27.7271C15.3116 27.9096 15.1011 28 14.8535 28H13.0699C12.8223 28 12.6117 27.9096 12.4383 27.7271C12.2648 27.5447 12.1788 27.3233 12.1788 27.0629V24.6414C11.7829 24.172 11.5842 23.6263 11.5842 23.001V21.1253C11.5842 20.6559 11.6954 20.2334 11.9178 19.856C12.1402 19.4787 12.4383 19.1731 12.8089 18.9376H11.7325C11.5101 18.9376 11.3737 18.8332 11.3233 18.6258L11.0268 17.6887C10.9778 17.5327 10.9956 17.3893 11.0831 17.2583C11.1691 17.1289 11.2877 17.0634 11.436 17.0634H13.4791L13.7756 16.2432C14.1225 15.2796 14.7037 14.4984 15.5222 13.8997C16.3406 13.3009 17.2435 13 18.2339 13H22.7664C23.7568 13 24.6613 13.2994 25.4782 13.8981C26.2951 14.4969 26.8778 15.2781 27.2248 16.2417L27.5213 17.0619H29.5644V17.0634ZM14.259 23.3129H14.4072C14.9024 23.3129 15.2612 23.2864 15.4851 23.2349C15.8573 23.157 16.0426 22.9745 16.0426 22.6876C16.0426 22.3493 15.8261 21.9517 15.3932 21.4964C14.9602 21.0411 14.5822 20.8134 14.2604 20.8134C13.9387 20.8134 13.66 20.9366 13.4242 21.1845C13.1885 21.4324 13.0713 21.7256 13.0713 22.0639C13.0713 22.4023 13.1885 22.6954 13.4242 22.9433C13.66 23.1913 13.9387 23.3144 14.2604 23.3144L14.259 23.3129ZM16.0055 17.1398L15.448 18.6242H25.5523L24.9949 17.1398C24.8214 16.6455 24.5308 16.2479 24.1216 15.9485C23.7124 15.6492 23.2616 15.4995 22.7649 15.4995H18.2325C17.7373 15.4995 17.2851 15.6492 16.8758 15.9485C16.4666 16.2479 16.176 16.6455 16.0026 17.1398H16.0055ZM26.7414 23.3129C27.0632 23.3129 27.3419 23.1897 27.5776 22.9418C27.8134 22.6939 27.9305 22.4007 27.9305 22.0624C27.9305 21.724 27.8134 21.4309 27.5776 21.183C27.3419 20.935 27.0632 20.8119 26.7414 20.8119C26.4197 20.8119 26.0416 21.0395 25.6087 21.4948C25.1757 21.9501 24.9593 22.3477 24.9593 22.6861C24.9593 22.973 25.1446 23.1554 25.5167 23.2334C25.7391 23.2848 26.0994 23.3113 26.5946 23.3113H26.7429L26.7414 23.3129Z" fill="#1F1F1F"/>
</svg>
