<svg width="13" height="13" viewBox="0 0 13 13" fill="none" xmlns="http://www.w3.org/2000/svg">
<path d="M8.20421 11.0376L8.83289 12.1315C8.22936 12.4081 7.56925 12.5904 6.88399 12.6596V11.3896C7.34921 11.3331 7.78929 11.2136 8.20421 11.0376ZM1.26992 7.03292H0C0.0691543 7.72446 0.25147 8.37828 0.528087 8.98181L1.62198 8.35314C1.44595 7.93821 1.3265 7.49814 1.26992 7.03292ZM8.20421 1.77091L8.83289 0.677013C8.22936 0.400396 7.57554 0.21808 6.88399 0.148926V1.41885C7.34921 1.47543 7.78929 1.59488 8.20421 1.77091ZM11.2407 5.77557H12.5106C12.4415 5.08403 12.2592 4.4302 11.9826 3.82668L10.8887 4.45535C11.0647 4.87028 11.1841 5.31035 11.2407 5.77557ZM4.30642 11.0376L3.67775 12.1315C4.28128 12.4081 4.94139 12.5904 5.62664 12.6596V11.3896C5.16142 11.3331 4.72135 11.2136 4.30642 11.0376ZM5.62664 1.41885V0.148926C4.9351 0.21808 4.28128 0.400396 3.67775 0.677013L4.30642 1.77091C4.72135 1.59488 5.16142 1.47543 5.62664 1.41885ZM10.2537 3.36774L11.3476 2.73278C10.9515 2.18583 10.4674 1.70175 9.92049 1.30569L9.28553 2.39958C9.65645 2.68249 9.97708 3.00311 10.2537 3.36774ZM1.62198 4.45535L0.528087 3.82668C0.25147 4.4302 0.0691543 5.08403 0 5.77557H1.26992C1.3265 5.31035 1.44595 4.87028 1.62198 4.45535ZM11.2407 7.03292C11.1841 7.49814 11.0647 7.93821 10.8887 8.35314L11.9826 8.98181C12.2592 8.37828 12.4415 7.71818 12.5106 7.03292H11.2407ZM9.29182 10.4026L9.92678 11.4965C10.4737 11.1004 10.9578 10.6164 11.3539 10.0694L10.26 9.43446C9.97708 9.80538 9.65645 10.126 9.29182 10.4026ZM3.21882 2.40587L2.59014 1.30569C2.03691 1.70804 1.55911 2.18583 1.16305 2.73907L2.25694 3.37403C2.53356 3.00311 2.85419 2.68249 3.21882 2.40587ZM2.25694 9.44075L1.16305 10.0694C1.55911 10.6164 2.04319 11.1004 2.59014 11.4965L3.2251 10.4026C2.85419 10.126 2.53356 9.80538 2.25694 9.44075ZM6.88399 3.26087H5.62664V6.662L8.32366 9.35902L9.21009 8.47259L6.88399 6.14649V3.26087Z" fill="#1F1F1F"/>
</svg>
