<svg width="17" height="17" viewBox="0 0 17 17" fill="none" xmlns="http://www.w3.org/2000/svg">
<path fill-rule="evenodd" clip-rule="evenodd" d="M0 2.35033C0 1.05228 1.07337 0 2.39744 0H14.6026C15.9267 0 17 1.05229 17 2.35033V14.3157C17 15.6137 15.9267 16.666 14.6026 16.666H2.39744C1.07337 16.666 0 15.6138 0 14.3157V2.35033ZM4.1411 3.4186C3.77999 3.4186 3.48725 3.70558 3.48725 4.0596C3.48725 4.41361 3.77999 4.7006 4.1411 4.7006H12.859C13.2202 4.7006 13.5129 4.41361 13.5129 4.0596C13.5129 3.70558 13.2202 3.4186 12.859 3.4186H4.1411ZM4.14104 7.6919C3.77993 7.6919 3.4872 7.97889 3.4872 8.3329C3.4872 8.68692 3.77993 8.9739 4.14104 8.9739H12.859C13.2201 8.9739 13.5128 8.68692 13.5128 8.3329C13.5128 7.97889 13.2201 7.6919 12.859 7.6919H4.14104ZM3.4872 12.6062C3.4872 12.2522 3.77993 11.9652 4.14104 11.9652H9.37181C9.73292 11.9652 10.0257 12.2522 10.0257 12.6062C10.0257 12.9602 9.73292 13.2472 9.37181 13.2472H4.14104C3.77993 13.2472 3.4872 12.9602 3.4872 12.6062Z" fill="white"/>
</svg>
