<?xml version="1.0" encoding="utf-8"?>
<!-- Generator: Adobe Illustrator 26.5.0, SVG Export Plug-In . SVG Version: 6.00 Build 0)  -->
<svg version="1.1" id="Calque_1" xmlns="http://www.w3.org/2000/svg" xmlns:xlink="http://www.w3.org/1999/xlink" x="0px" y="0px"
	 viewBox="0 0 21 20" style="enable-background:new 0 0 21 20;" xml:space="preserve">
<style type="text/css">
	.st0{fill-rule:evenodd;clip-rule:evenodd;}
</style>
<path class="st0" d="M7.8,0.7c1.6-1,3.6-1,5.2,0v0L18.3,4c1.5,0.9,2.4,2.5,2.4,4.3V15c0,2.8-2.2,5-5,5H5c-2.8,0-5-2.2-5-5V8.3
	C0,6.5,0.9,4.9,2.4,4l0.4,0.6L2.4,4L7.8,0.7L7.8,0.7z M7.1,14.2c-0.4,0-0.8,0.4-0.8,0.8c0,0.4,0.4,0.8,0.8,0.8h6.4
	c0.4,0,0.8-0.4,0.8-0.8c0-0.4-0.4-0.8-0.8-0.8H7.1z"/>
</svg>
