<svg width="20" height="20" viewBox="0 0 20 20" fill="none" xmlns="http://www.w3.org/2000/svg">
<path fill-rule="evenodd" clip-rule="evenodd" d="M0 9.76184C0 4.37052 4.47715 0 10 0C15.5228 0 20 4.37052 20 9.76184C20 15.1532 15.5228 19.5237 10 19.5237C4.47715 19.5237 0 15.1532 0 9.76184ZM7.34758 7.69065C7.34758 6.26082 8.53493 5.10169 9.9997 5.10169C11.4645 5.10169 12.6518 6.26082 12.6518 7.69065C12.6518 8.46354 12.3049 9.15731 11.7548 9.63168C13.1222 10.2712 14.0665 11.6348 14.0665 13.2138V13.9041C14.0665 14.1901 13.829 14.4219 13.536 14.4219C13.2431 14.4219 13.0056 14.1901 13.0056 13.9041V13.2138C13.0056 11.5953 11.6633 10.2829 10.0062 10.2796L9.9997 10.2796L9.99339 10.2796C8.33634 10.283 6.99412 11.5954 6.99412 13.2138V13.9041C6.99412 14.1901 6.75664 14.4219 6.46369 14.4219C6.17074 14.4219 5.93326 14.1901 5.93326 13.9041V13.2138C5.93326 11.6349 6.87746 10.2713 8.24472 9.63178C7.69454 9.1574 7.34758 8.46359 7.34758 7.69065ZM11.591 7.69065C11.591 8.5467 10.8817 9.24097 10.0055 9.24402L9.99986 9.24402L9.99399 9.24402C9.11775 9.24102 8.40843 8.54673 8.40843 7.69065C8.40843 6.83274 9.12084 6.13728 9.9997 6.13728C10.8786 6.13728 11.591 6.83274 11.591 7.69065Z" fill="white"/>
</svg>
