<svg width="21" height="21" viewBox="0 0 21 21" fill="none" xmlns="http://www.w3.org/2000/svg">
<path d="M10.5 0C4.704 0 0 4.704 0 10.5C0 16.296 4.704 21 10.5 21C16.296 21 21 16.296 21 10.5C21 4.704 16.296 0 10.5 0ZM10.5 3.15C12.243 3.15 13.65 4.557 13.65 6.3C13.65 8.043 12.243 9.45 10.5 9.45C8.757 9.45 7.35 8.043 7.35 6.3C7.35 4.557 8.757 3.15 10.5 3.15ZM10.5 18.06C7.875 18.06 5.5545 16.716 4.2 14.679C4.2315 12.5895 8.4 11.445 10.5 11.445C12.5895 11.445 16.7685 12.5895 16.8 14.679C15.4455 16.716 13.125 18.06 10.5 18.06Z" fill="#1F1F1F"/>
</svg>
