<svg width="21" height="15" viewBox="0 0 21 15" fill="none" xmlns="http://www.w3.org/2000/svg">
<path d="M3.16076 7.33244C3.11872 7.29974 3.06875 7.31569 3.02328 7.31569C2.46383 7.31436 1.9036 7.29974 1.34468 7.31941C0.91637 7.33457 0.477221 6.84158 0.690053 6.38421C0.737908 6.28157 0.716757 6.24115 0.599368 6.2462C0.454219 6.25259 0.308541 6.2462 0.163128 6.24753C0.0547284 6.24833 -0.00185072 6.19887 0.000528777 6.08719C0.00132194 6.05608 0 6.02523 0 5.99412C0.000264388 4.07532 0.000264388 2.15652 0.000264388 0.237723C0.000264388 0.00265908 0.00290826 0 0.235834 0C2.42576 0 4.61543 0 6.80536 0C7.03775 0 7.03907 0.00159544 7.03907 0.239052C7.03907 2.06026 7.03907 3.88174 7.03907 5.70295C7.03907 5.92791 7.05811 5.95796 7.27782 5.97604C7.71485 6.01194 8.13311 6.12149 8.54053 6.27891C8.63386 6.31508 8.66665 6.28503 8.67564 6.1885C8.75575 5.33387 9.35855 4.66325 10.1596 4.45079C10.3371 4.40372 10.5197 4.38325 10.7069 4.38404C11.8393 4.38963 12.9717 4.38936 14.1041 4.38537C14.5075 4.38404 14.8763 4.48722 15.2137 4.70845C15.2452 4.72893 15.2798 4.77573 15.3171 4.74781C15.3581 4.71723 15.3295 4.6675 15.3181 4.62522C15.201 4.19126 15.0844 3.7573 14.9681 3.32307C14.9075 3.09731 14.8465 2.87182 14.7894 2.64526C14.7626 2.53917 14.7071 2.49768 14.5934 2.49822C14.3431 2.49901 14.0924 2.51444 13.8415 2.47854C13.51 2.43121 13.3069 2.12195 13.2802 1.8712C13.2466 1.55557 13.4526 1.23568 13.7252 1.145C13.8434 1.10565 13.9621 1.08757 14.0871 1.08837C14.5982 1.09182 15.1093 1.0897 15.6203 1.08996C15.8022 1.08996 15.826 1.11629 15.8718 1.29072C15.9857 1.72548 16.106 2.15865 16.2229 2.59235C16.2641 2.74551 16.3035 2.89947 16.3434 3.0529C16.3508 3.08189 16.3429 3.1223 16.3799 3.13135C16.4169 3.14039 16.4283 3.10316 16.4457 3.07816C16.7429 2.65218 17.1358 2.37111 17.645 2.25039C17.9948 2.16742 18.3475 2.19295 18.6952 2.21848C19.0042 2.24108 19.1946 2.47561 19.3382 2.7378C19.4624 2.96489 19.5224 3.21112 19.5761 3.46373C19.6628 3.87323 19.6324 4.28566 19.6139 4.69409C19.597 5.06876 19.4963 5.43518 19.2935 5.76225C19.1073 6.06193 18.8358 6.22387 18.4881 6.24328C18.2957 6.25418 18.1035 6.24753 17.9094 6.21749C17.6683 6.17999 17.4356 6.12867 17.2167 6.01965C17.1517 5.98721 17.1316 6.02337 17.1464 6.07842C17.2125 6.32518 17.2791 6.57194 17.3534 6.81631C17.3893 6.93411 17.4996 6.89529 17.5673 6.87508C17.7238 6.82801 17.8811 6.82615 18.0384 6.83599C18.8387 6.88518 19.5967 7.07903 20.2868 7.50661C20.4504 7.60792 20.6046 7.71243 20.6868 7.8967C20.777 8.098 20.7621 8.48303 20.5565 8.67608C20.351 8.86887 20.0338 8.9404 19.7855 8.82419C19.5462 8.71225 19.3263 8.56254 19.0783 8.46655C18.6785 8.31232 18.2671 8.24425 17.8396 8.26791C17.7727 8.27163 17.741 8.28387 17.7645 8.36098C17.7939 8.45777 17.8116 8.55802 17.838 8.65587C17.86 8.73777 17.9292 8.75426 18.0006 8.76995C18.2026 8.81462 18.4102 8.79973 18.614 8.84839C19.2189 8.99331 19.7302 9.29379 20.1601 9.73945C20.4872 10.0785 20.723 10.476 20.8661 10.9249C20.9393 11.1549 21.0025 11.39 20.9996 11.6367C20.9959 11.9412 21.0181 12.2467 20.9446 12.5477C20.8676 12.8631 20.759 13.1654 20.5953 13.4457C20.1945 14.1325 19.6092 14.5971 18.8638 14.8457C18.3607 15.0135 17.8396 15.0334 17.3174 14.9257C16.2263 14.7008 15.486 14.0453 15.0477 13.0327C14.8755 12.6352 14.7899 12.205 14.8192 11.7776C14.8972 10.6489 15.4123 9.76897 16.3902 9.18158C16.409 9.17014 16.4309 9.16296 16.4479 9.1494C16.5169 9.09409 16.5142 9.02283 16.4682 8.96087C16.418 8.89333 16.3722 8.95848 16.3366 8.9872C15.9685 9.28368 15.619 9.60171 15.2838 9.9349C14.8105 10.405 14.3499 10.8906 13.819 11.2948C13.308 11.6838 12.821 12.1103 12.2277 12.381C11.8731 12.5429 11.5035 12.6246 11.1181 12.6267C10.2236 12.6323 9.32921 12.6302 8.43478 12.6267C8.29968 12.6262 8.2312 12.6567 8.18229 12.8059C7.84995 13.8185 7.18026 14.5213 6.17003 14.8436C5.25736 15.135 4.36849 15.0199 3.55602 14.4926C2.94793 14.098 2.51909 13.547 2.29674 12.853C2.16613 12.4451 2.11564 12.0252 2.16164 11.5878C2.27136 10.543 2.77846 9.75966 3.65358 9.21322C4.05307 8.9638 4.49275 8.83004 4.96944 8.78936C5.72189 8.72528 6.40269 8.9053 7.01184 9.33846C7.60883 9.76312 8.02207 10.3298 8.20979 11.0504C8.21851 11.0839 8.23702 11.1155 8.2542 11.1461C8.27694 11.1865 8.31422 11.1961 8.35679 11.1852C8.39882 11.1746 8.40649 11.14 8.40887 11.1028C8.41786 10.9677 8.37291 10.839 8.34198 10.7129C8.18811 10.0878 7.87824 9.54826 7.40737 9.11005C7.02718 8.75612 6.58512 8.51414 6.08437 8.36656C5.65103 8.23893 5.20845 8.23042 4.7767 8.2836C4.16544 8.35912 3.61551 8.61811 3.14437 9.0316C2.64494 9.46982 2.31419 10.0133 2.13652 10.651C2.05694 10.9368 2.03473 11.2341 2.01834 11.5293C2.0001 11.8595 1.7135 12.1305 1.38487 12.1579C0.937785 12.1949 0.617875 11.7768 0.632681 11.4043C0.67657 10.2955 1.02715 9.3132 1.74734 8.46628C2.13308 8.01264 2.58625 7.64781 3.11264 7.37339C3.13089 7.36382 3.15547 7.36116 3.16023 7.33111L3.16076 7.33244ZM3.51821 3.7448C4.19664 3.7448 4.87506 3.74267 5.55348 3.74693C5.67192 3.74772 5.71819 3.71262 5.71528 3.58818C5.70841 3.27813 5.70973 2.96781 5.71475 2.65776C5.7166 2.54555 5.6825 2.49981 5.56458 2.50008C4.20324 2.503 2.84191 2.50274 1.48084 2.50008C1.36821 2.50008 1.32326 2.53571 1.32538 2.65297C1.33093 2.95425 1.32696 3.25552 1.32723 3.5568C1.32723 3.7432 1.32855 3.74453 1.50913 3.74453C2.17882 3.7448 2.84852 3.74453 3.51795 3.74453L3.51821 3.7448ZM16.661 11.9061C16.6501 12.1103 16.7268 12.314 16.8283 12.5137C17.0359 12.9219 17.6836 13.2604 18.2023 13.1216C18.8501 12.9484 19.2112 12.3743 19.188 11.8292C19.1679 11.3578 18.9199 10.9967 18.5024 10.7648C18.4799 10.7523 18.4564 10.7284 18.4305 10.7462C18.3998 10.7672 18.4099 10.802 18.4178 10.8315C18.4411 10.9166 18.4691 11.0001 18.4903 11.0858C18.5378 11.2769 18.5939 11.4586 18.5236 11.6676C18.422 11.9686 18.1177 12.1629 17.8385 12.1502C17.5263 12.1361 17.2561 11.9002 17.1879 11.6184C17.1474 11.4516 17.0985 11.2873 17.0528 11.1219C17.0303 11.0416 16.9983 11.0134 16.9372 11.0972C16.767 11.3312 16.6551 11.5851 16.6615 11.9061H16.661ZM5.63623 11.195C5.81469 11.195 5.95984 11.1969 6.10525 11.194C6.15046 11.1929 6.21471 11.2195 6.2356 11.1637C6.25358 11.1155 6.20334 11.0743 6.17241 11.0397C5.84615 10.6747 5.30469 10.4997 4.80261 10.689C4.23867 10.9017 3.83548 11.5538 4.01579 12.1973C4.19055 12.8213 4.68099 13.1301 5.20422 13.1556C5.56643 13.1734 5.87947 13.0208 6.13777 12.7631C6.16765 12.7333 6.22026 12.7027 6.20334 12.6573C6.18483 12.6073 6.12561 12.6331 6.08463 12.6307C5.74754 12.6118 5.41018 12.6543 5.07176 12.5879C4.76719 12.528 4.54219 12.2557 4.50491 11.9223C4.47583 11.6636 4.72224 11.3389 4.97684 11.2474C5.20581 11.165 5.439 11.2126 5.63649 11.1956L5.63623 11.195Z" fill="black"/>
</svg>
