<svg width="21" height="16" viewBox="0 0 21 16" fill="none" xmlns="http://www.w3.org/2000/svg">
<path d="M3.16076 8.31657C3.11872 8.28387 3.06875 8.29982 3.02328 8.29982C2.46383 8.29849 1.9036 8.28387 1.34468 8.30354C0.91637 8.3187 0.477221 7.82571 0.690053 7.36834C0.737908 7.2657 0.716757 7.22528 0.599368 7.23034C0.454219 7.23672 0.308541 7.23034 0.163128 7.23167C0.0547284 7.23246 -0.00185072 7.183 0.000528777 7.07132C0.00132194 7.04021 0 7.00937 0 6.97825C0.000264388 5.05945 0.000264388 3.14065 0.000264388 1.22185C0.000264388 0.98679 0.00290826 0.984131 0.235834 0.984131C2.42576 0.984131 4.61543 0.984131 6.80536 0.984131C7.03775 0.984131 7.03907 0.985726 7.03907 1.22318C7.03907 3.04439 7.03907 4.86587 7.03907 6.68708C7.03907 6.91204 7.05811 6.94209 7.27782 6.96017C7.71485 6.99607 8.13311 7.10562 8.54053 7.26304C8.63386 7.29921 8.66665 7.26916 8.67564 7.17263C8.75575 6.318 9.35855 5.64738 10.1596 5.43492C10.3371 5.38785 10.5197 5.36738 10.7069 5.36817C11.8393 5.37376 12.9717 5.37349 14.1041 5.3695C14.5075 5.36817 14.8763 5.47135 15.2137 5.69258C15.2452 5.71306 15.2798 5.75986 15.3171 5.73194C15.3581 5.70136 15.3295 5.65163 15.3181 5.60935C15.201 5.17539 15.0844 4.74143 14.9681 4.3072C14.9075 4.08144 14.8465 3.85595 14.7894 3.62939C14.7626 3.5233 14.7071 3.48181 14.5934 3.48235C14.3431 3.48314 14.0924 3.49857 13.8415 3.46267C13.51 3.41534 13.3069 3.10609 13.2802 2.85533C13.2466 2.5397 13.4526 2.21981 13.7252 2.12914C13.8434 2.08978 13.9621 2.0717 14.0871 2.0725C14.5982 2.07595 15.1093 2.07383 15.6203 2.07409C15.8022 2.07409 15.826 2.10042 15.8718 2.27485C15.9857 2.70962 16.106 3.14278 16.2229 3.57648C16.2641 3.72964 16.3035 3.8836 16.3434 4.03703C16.3508 4.06602 16.3429 4.10644 16.3799 4.11548C16.4169 4.12452 16.4283 4.08729 16.4457 4.06229C16.7429 3.63631 17.1358 3.35524 17.645 3.23452C17.9948 3.15156 18.3475 3.17708 18.6952 3.20261C19.0042 3.22521 19.1946 3.45974 19.3382 3.72193C19.4624 3.94902 19.5224 4.19525 19.5761 4.44786C19.6628 4.85736 19.6324 5.26979 19.6139 5.67822C19.597 6.05289 19.4963 6.41931 19.2935 6.74638C19.1073 7.04606 18.8358 7.208 18.4881 7.22741C18.2957 7.23831 18.1035 7.23167 17.9094 7.20162C17.6683 7.16412 17.4356 7.1128 17.2167 7.00378C17.1517 6.97134 17.1316 7.0075 17.1464 7.06255C17.2125 7.30931 17.2791 7.55607 17.3534 7.80044C17.3893 7.91824 17.4996 7.87942 17.5673 7.85921C17.7238 7.81214 17.8811 7.81028 18.0384 7.82012C18.8387 7.86931 19.5967 8.06316 20.2868 8.49074C20.4504 8.59206 20.6046 8.69656 20.6868 8.88083C20.777 9.08213 20.7621 9.46716 20.5565 9.66021C20.351 9.853 20.0338 9.92453 19.7855 9.80832C19.5462 9.69638 19.3263 9.54667 19.0783 9.45068C18.6785 9.29645 18.2671 9.22838 17.8396 9.25204C17.7727 9.25576 17.741 9.268 17.7645 9.34511C17.7939 9.4419 17.8116 9.54215 17.838 9.64C17.86 9.7219 17.9292 9.73839 18.0006 9.75408C18.2026 9.79875 18.4102 9.78386 18.614 9.83252C19.2189 9.97744 19.7302 10.2779 20.1601 10.7236C20.4872 11.0626 20.723 11.4602 20.8661 11.909C20.9393 12.139 21.0025 12.3741 20.9996 12.6208C20.9959 12.9253 21.0181 13.2308 20.9446 13.5318C20.8676 13.8472 20.759 14.1496 20.5953 14.4298C20.1945 15.1167 19.6092 15.5812 18.8638 15.8298C18.3607 15.9976 17.8396 16.0176 17.3174 15.9099C16.2263 15.6849 15.486 15.0294 15.0477 14.0169C14.8755 13.6193 14.7899 13.1891 14.8192 12.7618C14.8972 11.633 15.4123 10.7531 16.3902 10.1657C16.409 10.1543 16.4309 10.1471 16.4479 10.1335C16.5169 10.0782 16.5142 10.007 16.4682 9.945C16.418 9.87746 16.3722 9.94261 16.3366 9.97133C15.9685 10.2678 15.619 10.5858 15.2838 10.919C14.8105 11.3892 14.3499 11.8747 13.819 12.2789C13.308 12.6679 12.821 13.0944 12.2277 13.3651C11.8731 13.5271 11.5035 13.6087 11.1181 13.6108C10.2236 13.6164 9.32921 13.6143 8.43478 13.6108C8.29968 13.6103 8.2312 13.6409 8.18229 13.79C7.84995 14.8026 7.18026 15.5054 6.17003 15.8277C5.25736 16.1191 4.36849 16.004 3.55602 15.4767C2.94793 15.0821 2.51909 14.5311 2.29674 13.8371C2.16613 13.4292 2.11564 13.0093 2.16164 12.5719C2.27136 11.5272 2.77846 10.7438 3.65358 10.1973C4.05307 9.94793 4.49275 9.81417 4.96944 9.77349C5.72189 9.70941 6.40269 9.88943 7.01184 10.3226C7.60883 10.7472 8.02207 11.3139 8.20979 12.0345C8.21851 12.068 8.23702 12.0997 8.2542 12.1302C8.27694 12.1707 8.31422 12.1802 8.35679 12.1693C8.39882 12.1587 8.40649 12.1241 8.40887 12.0869C8.41786 11.9518 8.37291 11.8231 8.34198 11.6971C8.18811 11.0719 7.87824 10.5324 7.40737 10.0942C7.02718 9.74025 6.58512 9.49827 6.08437 9.3507C5.65103 9.22306 5.20845 9.21455 4.7767 9.26773C4.16544 9.34325 3.61551 9.60224 3.14437 10.0157C2.64494 10.454 2.31419 10.9975 2.13652 11.6351C2.05694 11.921 2.03473 12.2183 2.01834 12.5134C2.0001 12.8437 1.7135 13.1146 1.38487 13.142C0.937785 13.179 0.617875 12.761 0.632681 12.3884C0.67657 11.2796 1.02715 10.2973 1.74734 9.45041C2.13308 8.99677 2.58625 8.63194 3.11264 8.35752C3.13089 8.34795 3.15547 8.34529 3.16023 8.31525L3.16076 8.31657ZM3.51821 4.72893C4.19664 4.72893 4.87506 4.7268 5.55348 4.73106C5.67192 4.73185 5.71819 4.69675 5.71528 4.57231C5.70841 4.26226 5.70973 3.95194 5.71475 3.64189C5.7166 3.52968 5.6825 3.48394 5.56458 3.48421C4.20324 3.48713 2.84191 3.48687 1.48084 3.48421C1.36821 3.48421 1.32326 3.51984 1.32538 3.63711C1.33093 3.93838 1.32696 4.23966 1.32723 4.54093C1.32723 4.72733 1.32855 4.72866 1.50913 4.72866C2.17882 4.72893 2.84852 4.72866 3.51795 4.72866L3.51821 4.72893ZM16.661 12.8902C16.6501 13.0944 16.7268 13.2981 16.8283 13.4978C17.0359 13.906 17.6836 14.2445 18.2023 14.1057C18.8501 13.9326 19.2112 13.3585 19.188 12.8134C19.1679 12.3419 18.9199 11.9808 18.5024 11.7489C18.4799 11.7364 18.4564 11.7125 18.4305 11.7303C18.3998 11.7513 18.4099 11.7862 18.4178 11.8157C18.4411 11.9008 18.4691 11.9843 18.4903 12.0699C18.5378 12.2611 18.5939 12.4427 18.5236 12.6517C18.422 12.9527 18.1177 13.1471 17.8385 13.1343C17.5263 13.1202 17.2561 12.8844 17.1879 12.6025C17.1474 12.4358 17.0985 12.2714 17.0528 12.106C17.0303 12.0257 16.9983 11.9976 16.9372 12.0813C16.767 12.3153 16.6551 12.5693 16.6615 12.8902H16.661ZM5.63623 12.1792C5.81469 12.1792 5.95984 12.181 6.10525 12.1781C6.15046 12.177 6.21471 12.2036 6.2356 12.1478C6.25358 12.0997 6.20334 12.0584 6.17241 12.0239C5.84615 11.6588 5.30469 11.4838 4.80261 11.6731C4.23867 11.8859 3.83548 12.5379 4.01579 13.1814C4.19055 13.8055 4.68099 14.1142 5.20422 14.1397C5.56643 14.1575 5.87947 14.0049 6.13777 13.7472C6.16765 13.7175 6.22026 13.6869 6.20334 13.6414C6.18483 13.5914 6.12561 13.6172 6.08463 13.6148C5.74754 13.5959 5.41018 13.6385 5.07176 13.572C4.76719 13.5122 4.54219 13.2399 4.50491 12.9064C4.47583 12.6477 4.72224 12.323 4.97684 12.2316C5.20581 12.1491 5.439 12.1967 5.63649 12.1797L5.63623 12.1792Z" fill="#FFCC00"/>
</svg>
