<svg width="40" height="40" viewBox="0 0 40 40" fill="none" xmlns="http://www.w3.org/2000/svg">
<circle cx="20" cy="20" r="19.5" fill="white" stroke="#BDBDBD"/>
<path fill-rule="evenodd" clip-rule="evenodd" d="M16.4643 20.561C16.4923 20.5586 16.521 20.5562 16.5461 20.5761C16.5432 20.5948 16.5308 20.5997 16.5186 20.6045C16.515 20.6059 16.5113 20.6073 16.508 20.6091C16.0914 20.8303 15.7327 21.1243 15.4274 21.4899C14.8573 22.1724 14.5798 22.9641 14.5451 23.8577C14.5333 24.158 14.7866 24.4948 15.1404 24.4651C15.4006 24.443 15.6274 24.2246 15.6419 23.9584C15.6548 23.7206 15.6724 23.481 15.7354 23.2506C15.876 22.7367 16.1378 22.2987 16.5331 21.9455C16.9061 21.6122 17.3414 21.4035 17.8252 21.3427C18.1669 21.2998 18.5173 21.3067 18.8603 21.4095C19.2566 21.5285 19.6065 21.7235 19.9075 22.0087C20.2802 22.3619 20.5254 22.7967 20.6472 23.3005C20.652 23.3201 20.6571 23.3398 20.6623 23.3596C20.6839 23.4423 20.7059 23.5268 20.7002 23.6147C20.6983 23.6447 20.6922 23.6726 20.659 23.6811C20.6253 23.6899 20.5958 23.6822 20.5778 23.6496C20.5769 23.6481 20.5761 23.6465 20.5752 23.645C20.5624 23.6218 20.5491 23.5978 20.5426 23.5725C20.394 22.9917 20.0669 22.535 19.5944 22.1928C19.1122 21.8437 18.5733 21.6986 17.9778 21.7503C17.6004 21.783 17.2524 21.8908 16.9362 22.0919C16.2435 22.5323 15.8421 23.1636 15.7553 24.0056C15.7189 24.3581 15.7588 24.6965 15.8622 25.0252C16.0382 25.5846 16.3777 26.0286 16.859 26.3466C17.5021 26.7716 18.2057 26.8644 18.9281 26.6295C19.7277 26.3698 20.2578 25.8034 20.5208 24.9873C20.5595 24.8671 20.6138 24.8424 20.7207 24.8429C21.4287 24.8457 22.1366 24.8474 22.8446 24.8429C23.1497 24.8412 23.4423 24.7754 23.7229 24.6449C24.103 24.4683 24.4279 24.2095 24.7524 23.951C24.8289 23.8901 24.9054 23.8292 24.9825 23.7694C25.337 23.4946 25.6519 23.1731 25.9667 22.8518C26.025 22.7923 26.0833 22.7327 26.1419 22.6735C26.4072 22.405 26.6839 22.1486 26.9752 21.9097C26.9799 21.9059 26.9848 21.9013 26.9898 21.8964C27.0155 21.8721 27.0462 21.843 27.0794 21.8885C27.1158 21.9384 27.1179 21.9959 27.0633 22.0404C27.0552 22.047 27.0457 22.0517 27.0361 22.0565C27.0299 22.0596 27.0236 22.0627 27.0177 22.0664C26.2436 22.5398 25.8359 23.2489 25.7742 24.1586C25.751 24.503 25.8188 24.8497 25.955 25.1701C26.302 25.9862 26.8879 26.5144 27.7516 26.6957C28.1649 26.7825 28.5774 26.7665 28.9756 26.6312C29.5656 26.4309 30.0289 26.0565 30.3462 25.5029C30.4757 25.277 30.5617 25.0334 30.6226 24.7792C30.6684 24.5883 30.6673 24.3951 30.6661 24.2019C30.6658 24.1496 30.6655 24.0973 30.6662 24.045C30.6685 23.8461 30.6184 23.6567 30.5605 23.4713C30.4473 23.1096 30.2606 22.7892 30.0017 22.516C29.6614 22.1568 29.2567 21.9146 28.7779 21.7978C28.6947 21.7776 28.6107 21.771 28.527 21.7644C28.4483 21.7582 28.3698 21.7521 28.2924 21.7346C28.2359 21.722 28.181 21.7087 28.1637 21.6427C28.1547 21.609 28.147 21.5749 28.1394 21.5409C28.1291 21.4953 28.1188 21.4497 28.1055 21.405C28.0869 21.3429 28.112 21.333 28.1649 21.33C28.5033 21.3109 28.8289 21.3658 29.1454 21.4901C29.2609 21.5356 29.3687 21.5961 29.4764 21.6566C29.5518 21.6989 29.6272 21.7412 29.7052 21.7783C29.9017 21.872 30.1528 21.8143 30.3154 21.659C30.4782 21.5034 30.4899 21.1931 30.4186 21.0308C30.3535 20.8823 30.2315 20.7981 30.102 20.7165C29.5558 20.3719 28.9558 20.2156 28.3223 20.176C28.1978 20.1681 28.0733 20.1696 27.9494 20.2075C27.9472 20.2082 27.9449 20.2089 27.9426 20.2096C27.8887 20.2261 27.8074 20.2512 27.7801 20.1601C27.7213 19.9632 27.6685 19.7643 27.6162 19.5654C27.6045 19.5211 27.6204 19.4919 27.6719 19.5181C27.8452 19.6059 28.0293 19.6473 28.2202 19.6775C28.3738 19.7017 28.5259 19.7071 28.6783 19.6983C28.9535 19.6827 29.1684 19.5522 29.3157 19.3106C29.4762 19.047 29.556 18.7517 29.5694 18.4498C29.5707 18.4198 29.5721 18.3899 29.5735 18.3599C29.5876 18.0602 29.6018 17.7582 29.5394 17.4582C29.4969 17.2546 29.4494 17.0562 29.3511 16.8732C29.2374 16.6618 29.0868 16.4728 28.8421 16.4546C28.5669 16.434 28.2878 16.4135 28.0109 16.4803C27.6078 16.5776 27.2969 16.8041 27.0616 17.1475C27.0589 17.1515 27.0563 17.1559 27.0537 17.1604C27.0434 17.1781 27.0329 17.1961 27.0095 17.1903C26.9877 17.1849 26.9856 17.1654 26.9836 17.1462C26.9829 17.1396 26.9822 17.1331 26.9807 17.1271C26.9729 17.0969 26.9652 17.0666 26.9575 17.0364C26.9337 16.9428 26.9099 16.8492 26.8852 16.7559C26.8533 16.6351 26.821 16.5143 26.7887 16.3936C26.7275 16.1649 26.6663 15.9362 26.6073 15.7069C26.5711 15.5663 26.5523 15.5451 26.4083 15.5451C26.2869 15.5451 26.1656 15.5452 26.0442 15.5453C25.7611 15.5455 25.4779 15.5458 25.1947 15.5438C25.0957 15.5432 25.0018 15.5578 24.9082 15.5895C24.6925 15.6626 24.5294 15.9204 24.556 16.1747C24.5772 16.3768 24.7379 16.6261 25.0003 16.6642C25.1549 16.6867 25.3093 16.6842 25.4636 16.6817C25.5076 16.6809 25.5515 16.6802 25.5955 16.6801C25.6855 16.6796 25.7294 16.7131 25.7506 16.7986C25.7902 16.9586 25.8322 17.118 25.8743 17.2774C25.8802 17.2999 25.8861 17.3224 25.892 17.3448C25.9841 17.6948 26.0764 18.0445 26.1691 18.3943C26.1708 18.4007 26.173 18.4074 26.1752 18.4141C26.1847 18.4429 26.1946 18.4731 26.1683 18.4931C26.1457 18.5103 26.1244 18.4923 26.1044 18.4755C26.0983 18.4703 26.0923 18.4652 26.0864 18.4614C25.8194 18.2831 25.5275 18.1999 25.2081 18.201C24.3118 18.2042 23.4155 18.2044 22.5192 18.1999C22.371 18.1993 22.2264 18.2158 22.086 18.2537C21.4519 18.4249 20.9747 18.9654 20.9113 19.6542C20.9042 19.732 20.8783 19.7562 20.8044 19.727C20.4819 19.6002 20.1508 19.5119 19.8049 19.4829C19.631 19.4684 19.6159 19.4441 19.6159 19.2628V14.8593C19.6159 14.668 19.6149 14.6667 19.4309 14.6667H14.2309C14.0466 14.6667 14.0445 14.6688 14.0445 14.8583C14.0445 16.4047 14.0445 17.9511 14.0443 19.4975C14.0443 19.5072 14.0444 19.5168 14.0446 19.5264C14.0448 19.5417 14.0451 19.5571 14.0447 19.5725C14.0428 19.6625 14.0876 19.7024 14.1734 19.7017C14.2167 19.7013 14.2601 19.7018 14.3035 19.7023C14.3753 19.7031 14.4471 19.7039 14.5187 19.7007C14.6116 19.6966 14.6284 19.7292 14.5905 19.8119C14.422 20.1805 14.7696 20.5778 15.1086 20.5656C15.4275 20.5542 15.7469 20.5571 16.0662 20.56C16.1899 20.5612 16.3136 20.5623 16.4373 20.5626C16.4461 20.5626 16.4552 20.5618 16.4643 20.561ZM17.2318 17.6845C17.0975 17.6846 16.9633 17.6847 16.8291 17.6847H16.8273C16.298 17.6847 15.7683 17.6847 15.2388 17.6845C15.0959 17.6845 15.0948 17.6834 15.0948 17.5332C15.0948 17.4585 15.095 17.3838 15.0953 17.3091C15.0958 17.141 15.0964 16.9729 15.0934 16.8048C15.0917 16.7103 15.1273 16.6816 15.2164 16.6816C16.2937 16.6837 17.3713 16.6839 18.4488 16.6816C18.5422 16.6813 18.5692 16.7182 18.5677 16.8086C18.5637 17.0585 18.5627 17.3086 18.5681 17.5585C18.5704 17.6588 18.5338 17.6871 18.44 17.6864C18.0373 17.6839 17.6345 17.6842 17.2318 17.6845ZM27.3645 24.7518C27.2841 24.5908 27.2234 24.4267 27.232 24.2621C27.227 24.0034 27.3159 23.7988 27.4507 23.6102C27.499 23.5427 27.5243 23.5654 27.5421 23.6301C27.5521 23.6668 27.5623 23.7035 27.5724 23.7401C27.5991 23.8365 27.6259 23.9329 27.6491 24.0302C27.7031 24.2574 27.9169 24.4475 28.1641 24.4588C28.3851 24.4691 28.626 24.3125 28.7063 24.0699C28.7578 23.9141 28.7237 23.7773 28.6885 23.6358C28.6857 23.6242 28.6828 23.6126 28.6799 23.601C28.6701 23.5603 28.6583 23.5202 28.6466 23.4801C28.6384 23.4522 28.6302 23.4243 28.6226 23.3961L28.6223 23.3948C28.616 23.3713 28.6088 23.3439 28.6327 23.3273C28.6491 23.3158 28.6643 23.3259 28.6789 23.3356C28.6825 23.3379 28.686 23.3403 28.6896 23.3423C29.02 23.5292 29.2163 23.8202 29.2322 24.2002C29.2506 24.6395 28.9648 25.1022 28.452 25.2417C28.0415 25.3536 27.5287 25.0807 27.3645 24.7518ZM18.623 23.6893C18.5856 23.6892 18.5467 23.6891 18.5055 23.6891C18.4541 23.6936 18.3997 23.6925 18.3434 23.6914C18.2283 23.6891 18.1053 23.6867 17.9836 23.7313C17.7821 23.805 17.587 24.0667 17.6101 24.2752C17.6396 24.5439 17.8177 24.7634 18.0587 24.8116C18.2301 24.8458 18.4011 24.8442 18.5719 24.8425C18.6681 24.8415 18.7643 24.8406 18.8605 24.8461C18.8692 24.8466 18.8789 24.8455 18.8888 24.8443C18.9158 24.8413 18.9437 24.838 18.9544 24.8675C18.9651 24.8968 18.9407 24.9184 18.9184 24.9382C18.9128 24.9431 18.9073 24.948 18.9025 24.9528C18.6981 25.1605 18.4503 25.2835 18.1636 25.2691C17.7494 25.2485 17.3612 24.9997 17.2229 24.4968C17.0802 23.9782 17.3993 23.4527 17.8457 23.2812C18.2431 23.1287 18.6717 23.2697 18.9299 23.5639C18.9336 23.568 18.9375 23.5723 18.9416 23.5766C18.965 23.6017 18.9921 23.6307 18.98 23.6638C18.9675 23.6976 18.9356 23.6939 18.9054 23.6903C18.8954 23.6891 18.8856 23.688 18.8768 23.6882C18.7952 23.6899 18.7138 23.6896 18.623 23.6893ZM9.51107 19.7037C9.51107 19.4255 9.73658 19.2 10.0148 19.2H12.0296C12.3078 19.2 12.5333 19.4255 12.5333 19.7037C12.5333 19.9819 12.3078 20.2074 12.0296 20.2074H10.0148C9.73658 20.2074 9.51107 19.9819 9.51107 19.7037ZM8 21.7186C8 21.4404 8.22552 21.2149 8.5037 21.2149H13.5407C13.8189 21.2149 14.0444 21.4404 14.0444 21.7186C14.0444 21.9968 13.8189 22.2223 13.5407 22.2223H8.5037C8.22552 22.2223 8 21.9968 8 21.7186Z" fill="#BDBDBD"/>
</svg>
