<?xml version="1.0" encoding="utf-8"?>
<!-- Generator: Adobe Illustrator 26.5.0, SVG Export Plug-In . SVG Version: 6.00 Build 0)  -->
<svg version="1.1" id="Calque_2_00000129926679828879720690000010523319459559040422_"
	 xmlns="http://www.w3.org/2000/svg" xmlns:xlink="http://www.w3.org/1999/xlink" x="0px" y="0px" viewBox="0 0 315.6 111.4"
	 style="enable-background:new 0 0 315.6 111.4;" xml:space="preserve">
<style type="text/css">
	.st0{fill:#FFCC00;}
	.st1{enable-background:new    ;}
	.st2{fill:#282828;}
</style>
<g id="Calque_1-2">
	<g> 
		<polygon class="st0" style="fill:#FFCC00;" points="165.6,0 160.8,22.7 22.2,22.7 0,0.5 0,0 		"/>
		<polygon class="st0" style="fill:#FFCC00;" points="159.6,31.1 154.8,53.8 53.3,53.8 30.6,31.1 		"/>
		<polygon class="st0" style="fill:#FFCC00;" points="152.9,62.2 148.1,84.9 84.4,84.9 61.7,62.2 		"/>
		
		<g>
			<path class="st2" style="fill:#282828;" d="M160.2,84.6l5.4-23.1h63.5L223,84.6H160.2z M179.6,0.2h30.9L197.5,54h-30.1L179.6,0.2z"/>
			<path class="st2" style="fill:#282828;" d="M308.2,23.4h-93.1l6.3-23.1h94.3L308.2,23.4L308.2,23.4z M248.6,30.7h30.5l-15.5,53.9h-29.7L248.6,30.7
				L248.6,30.7z"/>
		</g>
	</g>
</g>
</svg>
