<svg width="14" height="20" viewBox="0 0 14 20" fill="none" xmlns="http://www.w3.org/2000/svg">
<path d="M4.40497 15.1904L4.40436 15.1894C4.01917 14.5573 3.57422 13.9668 3.11214 13.3537L3.10426 13.3432C2.64434 12.7329 2.16758 12.0996 1.75391 11.4135C0.947229 10.0801 0.5 8.59344 0.5 7.004C0.5 3.41932 3.33726 0.5 6.86857 0.5C10.3999 0.5 13.2371 3.41932 13.2371 7.004C13.2371 8.59308 12.7901 10.0801 11.9744 11.4143C11.5608 12.1044 11.0844 12.7393 10.6245 13.3497L10.5924 13.3922C10.1386 13.9943 9.70244 14.5731 9.32379 15.1904H4.40497ZM4.40497 15.1904C4.78157 15.8053 5.05598 16.3818 5.35363 17.0669L5.35351 17.067M4.40497 15.1904L5.35351 17.067M5.35351 17.067L5.35834 17.0774M5.35351 17.067L5.35834 17.0774M5.35834 17.0774C5.39126 17.1487 5.42124 17.2247 5.45813 17.3183M5.35834 17.0774L5.45813 17.3183M5.45813 17.3183C5.47454 17.3599 5.49232 17.4049 5.51233 17.4546M5.45813 17.3183L5.51233 17.4546M5.51233 17.4546C5.5717 17.602 5.64598 17.7763 5.74247 17.9408M5.51233 17.4546L5.74247 17.9408M5.74247 17.9408C5.93605 18.2709 6.27919 18.6543 6.86857 18.6543M5.74247 17.9408L6.86857 18.6543M6.86857 18.6543C7.45801 18.6543 7.80138 18.2709 7.99437 17.9396M6.86857 18.6543L7.99437 17.9396M7.99437 17.9396C8.09057 17.7744 8.16407 17.5996 8.22259 17.4513M7.99437 17.9396L8.22259 17.4513M8.22259 17.4513C8.24483 17.395 8.26409 17.3448 8.28172 17.2989M8.22259 17.4513L8.28172 17.2989M8.28172 17.2989C8.3151 17.2119 8.34258 17.1403 8.37319 17.0713M8.28172 17.2989L8.37319 17.0713M8.37319 17.0713C8.68256 16.3785 8.94804 15.8039 9.32365 15.1907L8.37319 17.0713ZM6.86857 8.86271C5.99846 8.86271 5.27265 8.13675 5.27265 7.21843C5.27265 6.30011 5.99846 5.57414 6.86857 5.57414C7.73868 5.57414 8.46449 6.30011 8.46449 7.21843C8.46449 8.13675 7.73868 8.86271 6.86857 8.86271Z" stroke="#FFCC00"/>
</svg>
