<svg width="14" height="20" viewBox="0 0 14 20" fill="none" xmlns="http://www.w3.org/2000/svg">
<path d="M4.44134 15.3227L4.44073 15.3217C4.05177 14.6833 3.60247 14.0871 3.13606 13.4682L3.12803 13.4576C2.66372 12.8414 2.18259 12.2023 1.76514 11.5099C0.951209 10.1645 0.5 8.66461 0.5 7.061C0.5 3.44481 3.36217 0.5 6.92429 0.5C10.4864 0.5 13.3486 3.44481 13.3486 7.061C13.3486 8.66423 12.8976 10.1645 12.0745 11.5107C11.6571 12.2071 11.1764 12.8479 10.7121 13.464L10.6797 13.5071C10.2216 14.1149 9.78113 14.6993 9.39877 15.3227H4.44134ZM4.44134 15.3227C4.82169 15.9436 5.0988 16.5258 5.39932 17.2176L5.3992 17.2176M4.44134 15.3227L5.3992 17.2176M5.3992 17.2176L5.40403 17.2281M5.3992 17.2176L5.40403 17.2281M5.40403 17.2281C5.43732 17.3001 5.46765 17.377 5.50492 17.4716M5.40403 17.2281L5.50492 17.4716M5.50492 17.4716C5.52148 17.5136 5.53941 17.559 5.55957 17.6091M5.50492 17.4716L5.55957 17.6091M5.55957 17.6091C5.61949 17.7578 5.69437 17.9335 5.79159 18.0993M5.55957 17.6091L5.79159 18.0993M5.79159 18.0993C5.98663 18.4318 6.33176 18.8171 6.92429 18.8171M5.79159 18.0993L6.92429 18.8171M6.92429 18.8171C7.51687 18.8171 7.86222 18.4318 8.05667 18.098M6.92429 18.8171L8.05667 18.098M8.05667 18.098C8.1536 17.9316 8.22769 17.7554 8.28675 17.6057M8.05667 18.098L8.28675 17.6057M8.28675 17.6057C8.30915 17.549 8.32857 17.4984 8.34636 17.452M8.28675 17.6057L8.34636 17.452M8.34636 17.452C8.38014 17.364 8.40799 17.2915 8.43901 17.2216M8.34636 17.452L8.43901 17.2216M8.43901 17.2216C8.75125 16.5223 9.01933 15.9422 9.39862 15.3229L8.43901 17.2216ZM6.92429 8.94211C6.04319 8.94211 5.30847 8.20702 5.30847 7.27746C5.30847 6.34791 6.04319 5.61282 6.92429 5.61282C7.80538 5.61282 8.5401 6.34791 8.5401 7.27746C8.5401 8.20702 7.80538 8.94211 6.92429 8.94211Z" stroke="#4F4F4F"/>
</svg>
