<svg width="23" height="30" viewBox="0 0 23 30" fill="none" xmlns="http://www.w3.org/2000/svg">
<path d="M10.3181 29.3947C1.61539 17.0526 0 15.7859 0 11.25C0 5.03678 5.14871 0 11.5 0C17.8513 0 23 5.03678 23 11.25C23 15.7859 21.3846 17.0526 12.6819 29.3947C12.1108 30.2018 10.8892 30.2017 10.3181 29.3947ZM11.5 15.9375C14.1464 15.9375 16.2917 13.8388 16.2917 11.25C16.2917 8.66115 14.1464 6.5625 11.5 6.5625C8.85362 6.5625 6.70833 8.66115 6.70833 11.25C6.70833 13.8388 8.85362 15.9375 11.5 15.9375Z" fill="black"/>
</svg>
