<svg width="17" height="21" viewBox="0 0 17 21" fill="none" xmlns="http://www.w3.org/2000/svg">
<path d="M14.0515 7H13.0478V5C13.0478 2.24 10.7996 0 8.02941 0C5.25926 0 3.01103 2.24 3.01103 5V7H2.00735C0.903309 7 0 7.9 0 9V19C0 20.1 0.903309 21 2.00735 21H14.0515C15.1555 21 16.0588 20.1 16.0588 19V9C16.0588 7.9 15.1555 7 14.0515 7ZM8.02941 16C6.92537 16 6.02206 15.1 6.02206 14C6.02206 12.9 6.92537 12 8.02941 12C9.13346 12 10.0368 12.9 10.0368 14C10.0368 15.1 9.13346 16 8.02941 16ZM11.1408 7H4.91801V5C4.91801 3.29 6.31312 1.9 8.02941 1.9C9.7457 1.9 11.1408 3.29 11.1408 5V7Z" fill="black"/>
</svg>
