<svg width="19" height="25" viewBox="0 0 19 25" fill="none" xmlns="http://www.w3.org/2000/svg">
<path fill-rule="evenodd" clip-rule="evenodd" d="M12.4844 3.80849C12.4844 2.00971 13.9426 0.551514 15.7414 0.551514C17.5401 0.551514 18.9983 2.00971 18.9983 3.80849C18.9983 5.60727 17.5401 7.06547 15.7414 7.06547C13.9426 7.06547 12.4844 5.60727 12.4844 3.80849Z" fill="#1F1F1F"/>
<path fill-rule="evenodd" clip-rule="evenodd" d="M9.93606 3.77937C9.65718 3.58375 9.3113 3.46814 8.93617 3.46814C8.00904 3.46814 7.26064 4.17433 7.26064 5.04915V5.76588C4.05479 6.48261 2.23404 9.18087 2.23404 12.4272V17.6973L0 19.8053V20.8593H17.8723V19.8053L15.6383 17.6973V12.4272C15.6383 11.46 15.4746 10.5399 15.1598 9.70604C15.0224 9.71758 14.8834 9.72346 14.743 9.72346C12.0286 9.72346 9.82812 7.52299 9.82812 4.80857C9.82812 4.45558 9.86534 4.11128 9.93606 3.77937ZM11.1702 21.9133C11.1702 23.0727 10.1649 24.0213 8.93617 24.0213C7.69628 24.0213 6.70213 23.0727 6.70213 21.9133H11.1702Z" fill="#1F1F1F"/>
</svg>
