<svg width="38" height="33" viewBox="0 0 38 33" fill="none" xmlns="http://www.w3.org/2000/svg">
<rect opacity="0.1" width="38" height="33" rx="5" fill="#1F1F1F"/>
<path d="M27.5644 13.5216C27.7127 13.5216 27.8313 13.5784 27.9173 13.6905C28.0033 13.8041 28.0225 13.927 27.9736 14.0635L27.6771 14.8757C27.6281 15.0568 27.4917 15.1459 27.2679 15.1459H26.19C26.5621 15.3486 26.8586 15.6149 27.081 15.9419C27.3034 16.2689 27.4146 16.6365 27.4146 17.0419V18.6676C27.4146 19.2095 27.216 19.6838 26.8201 20.0892V22.1878C26.8201 22.4135 26.7341 22.6054 26.5606 22.7635C26.3872 22.9216 26.1766 23 25.929 23H24.1454C23.8978 23 23.6873 22.9216 23.5138 22.7635C23.3403 22.6054 23.2543 22.4135 23.2543 22.1878V20.8338H13.7446V22.1878C13.7446 22.4135 13.6586 22.6054 13.4851 22.7635C13.3116 22.9216 13.1011 23 12.8535 23H11.0699C10.8223 23 10.6117 22.9216 10.4383 22.7635C10.2648 22.6054 10.1788 22.4135 10.1788 22.1878V20.0892C9.78292 19.6824 9.58424 19.2095 9.58424 18.6676V17.0419C9.58424 16.6351 9.69544 16.2689 9.91784 15.9419C10.1402 15.6149 10.4383 15.35 10.8089 15.1459H9.73251C9.51011 15.1459 9.37371 15.0554 9.3233 14.8757L9.02677 14.0635C8.97784 13.9284 8.99563 13.8041 9.08311 13.6905C9.1691 13.5784 9.28771 13.5216 9.43598 13.5216H11.4791L11.7756 12.8108C12.1225 11.9757 12.7037 11.2986 13.5222 10.7797C14.3406 10.2608 15.2435 10 16.2339 10H20.7664C21.7568 10 22.6613 10.2595 23.4782 10.7784C24.2951 11.2973 24.8778 11.9743 25.2248 12.8095L25.5213 13.5203H27.5644V13.5216ZM12.259 18.9378H12.4072C12.9024 18.9378 13.2612 18.9149 13.4851 18.8703C13.8573 18.8027 14.0426 18.6446 14.0426 18.3959C14.0426 18.1027 13.8261 17.7581 13.3932 17.3635C12.9602 16.9689 12.5822 16.7716 12.2604 16.7716C11.9387 16.7716 11.66 16.8784 11.4242 17.0932C11.1885 17.3081 11.0713 17.5622 11.0713 17.8554C11.0713 18.1486 11.1885 18.4027 11.4242 18.6176C11.66 18.8324 11.9387 18.9392 12.2604 18.9392L12.259 18.9378ZM14.0055 13.5878L13.448 14.8743H23.5523L22.9949 13.5878C22.8214 13.1595 22.5308 12.8149 22.1216 12.5554C21.7124 12.2959 21.2616 12.1662 20.7649 12.1662H16.2325C15.7373 12.1662 15.2851 12.2959 14.8758 12.5554C14.4666 12.8149 14.176 13.1595 14.0026 13.5878H14.0055ZM24.7414 18.9378C25.0632 18.9378 25.3419 18.8311 25.5776 18.6162C25.8134 18.4014 25.9305 18.1473 25.9305 17.8541C25.9305 17.5608 25.8134 17.3068 25.5776 17.0919C25.3419 16.877 25.0632 16.7703 24.7414 16.7703C24.4197 16.7703 24.0416 16.9676 23.6087 17.3622C23.1757 17.7568 22.9593 18.1014 22.9593 18.3946C22.9593 18.6432 23.1446 18.8014 23.5167 18.8689C23.7391 18.9135 24.0994 18.9365 24.5946 18.9365H24.7429L24.7414 18.9378Z" fill="#1F1F1F"/>
</svg>
