<svg width="38" height="33" viewBox="0 0 38 33" fill="none" xmlns="http://www.w3.org/2000/svg">
<rect opacity="0.1" width="38" height="33" rx="5" fill="#1F1F1F"/>
<path d="M12.5587 16.866C12.5247 16.8398 12.4842 16.8526 12.4474 16.8526C11.9945 16.8515 11.541 16.8398 11.0885 16.8555C10.7418 16.8677 10.3863 16.4733 10.5586 16.1074C10.5974 16.0253 10.5802 15.9929 10.4852 15.997C10.3677 16.0021 10.2498 15.997 10.1321 15.998C10.0443 15.9987 9.9985 15.9591 10.0004 15.8698C10.0011 15.8449 10 15.8202 10 15.7953C10.0002 14.2603 10.0002 12.7252 10.0002 11.1902C10.0002 11.0021 10.0024 11 10.1909 11C11.9637 11 13.7363 11 15.5091 11C15.6972 11 15.6983 11.0013 15.6983 11.1912C15.6983 12.6482 15.6983 14.1054 15.6983 15.5624C15.6983 15.7423 15.7137 15.7664 15.8916 15.7808C16.2454 15.8096 16.5839 15.8972 16.9138 16.0231C16.9893 16.0521 17.0159 16.028 17.0231 15.9508C17.088 15.2671 17.576 14.7306 18.2245 14.5606C18.3681 14.523 18.516 14.5066 18.6675 14.5072C19.5842 14.5117 20.5009 14.5115 21.4176 14.5083C21.7442 14.5072 22.0427 14.5898 22.3158 14.7668C22.3413 14.7831 22.3694 14.8206 22.3995 14.7982C22.4327 14.7738 22.4096 14.734 22.4004 14.7002C22.3056 14.353 22.2112 14.0058 22.117 13.6585C22.068 13.4778 22.0186 13.2975 21.9723 13.1162C21.9507 13.0313 21.9058 12.9981 21.8137 12.9986C21.6111 12.9992 21.4082 13.0115 21.205 12.9828C20.9366 12.945 20.7723 12.6976 20.7507 12.497C20.7235 12.2445 20.8902 11.9885 21.1109 11.916C21.2065 11.8845 21.3026 11.8701 21.4039 11.8707C21.8176 11.8735 22.2313 11.8718 22.645 11.872C22.7923 11.872 22.8115 11.893 22.8486 12.0326C22.9408 12.3804 23.0382 12.7269 23.1328 13.0739C23.1662 13.1964 23.1981 13.3196 23.2304 13.4423C23.2364 13.4655 23.23 13.4978 23.2599 13.5051C23.2899 13.5123 23.2991 13.4825 23.3132 13.4625C23.5538 13.1217 23.8718 12.8969 24.2841 12.8003C24.5672 12.7339 24.8527 12.7544 25.1342 12.7748C25.3844 12.7929 25.5385 12.9805 25.6547 13.1902C25.7553 13.3719 25.8039 13.5689 25.8473 13.771C25.9175 14.0986 25.8929 14.4285 25.8779 14.7553C25.8642 15.055 25.7827 15.3481 25.6185 15.6098C25.4678 15.8495 25.248 15.9791 24.9666 15.9946C24.8108 16.0033 24.6552 15.998 24.4981 15.974C24.3029 15.944 24.1145 15.9029 23.9373 15.8157C23.8847 15.7898 23.8684 15.8187 23.8804 15.8627C23.9339 16.0601 23.9878 16.2576 24.048 16.4531C24.0771 16.5473 24.1663 16.5162 24.2211 16.5001C24.3478 16.4624 24.4752 16.4609 24.6025 16.4688C25.2504 16.5081 25.864 16.6632 26.4226 17.0053C26.5551 17.0863 26.6799 17.1699 26.7465 17.3174C26.8194 17.4784 26.8075 17.7864 26.6409 17.9409C26.4746 18.0951 26.2178 18.1523 26.0168 18.0594C25.8231 17.9698 25.6451 17.85 25.4443 17.7732C25.1207 17.6499 24.7877 17.5954 24.4416 17.6143C24.3874 17.6173 24.3617 17.6271 24.3808 17.6888C24.4046 17.7662 24.4189 17.8464 24.4403 17.9247C24.4581 17.9902 24.5141 18.0034 24.5719 18.016C24.7354 18.0517 24.9035 18.0398 25.0685 18.0787C25.5582 18.1946 25.9721 18.435 26.3201 18.7916C26.5849 19.0628 26.7758 19.3808 26.8916 19.7399C26.9509 19.9239 27.002 20.112 26.9997 20.3094C26.9967 20.5529 27.0146 20.7974 26.9551 21.0382C26.8929 21.2905 26.8049 21.5323 26.6724 21.7566C26.3479 22.306 25.8741 22.6777 25.2707 22.8766C24.8634 23.0108 24.4416 23.0267 24.0189 22.9406C23.1356 22.7606 22.5363 22.2363 22.1814 21.4262C22.0421 21.1082 21.9728 20.764 21.9965 20.4221C22.0597 19.5191 22.4766 18.8152 23.2683 18.3453C23.2835 18.3361 23.3012 18.3304 23.3149 18.3195C23.3708 18.2753 23.3687 18.2183 23.3314 18.1687C23.2907 18.1147 23.2537 18.1668 23.2248 18.1898C22.9269 18.4269 22.644 18.6814 22.3726 18.9479C21.9895 19.324 21.6166 19.7125 21.1868 20.0358C20.7731 20.347 20.3789 20.6882 19.8986 20.9048C19.6116 21.0343 19.3124 21.0997 19.0003 21.1014C18.2763 21.1058 17.5522 21.1041 16.8282 21.1014C16.7188 21.1009 16.6634 21.1254 16.6238 21.2447C16.3547 22.0548 15.8126 22.617 14.9948 22.8749C14.256 23.108 13.5364 23.0159 12.8787 22.5941C12.3864 22.2784 12.0393 21.8376 11.8593 21.2824C11.7535 20.9561 11.7127 20.6202 11.7499 20.2702C11.8387 19.4344 12.2492 18.8077 12.9577 18.3706C13.2811 18.171 13.637 18.064 14.0229 18.0315C14.632 17.9802 15.1831 18.1242 15.6763 18.4708C16.1595 18.8105 16.4941 19.2638 16.646 19.8403C16.6531 19.8671 16.6681 19.8924 16.682 19.9169C16.7004 19.9492 16.7306 19.9569 16.765 19.9482C16.799 19.9397 16.8053 19.912 16.8072 19.8822C16.8145 19.7741 16.7781 19.6712 16.753 19.5704C16.6285 19.0702 16.3776 18.6386 15.9964 18.288C15.6887 18.0049 15.3308 17.8113 14.9254 17.6933C14.5746 17.5911 14.2164 17.5843 13.8669 17.6269C13.372 17.6873 12.9268 17.8945 12.5454 18.2253C12.1411 18.5759 11.8734 19.0107 11.7296 19.5208C11.6651 19.7495 11.6472 19.9873 11.6339 20.2234C11.6191 20.4876 11.3871 20.7044 11.1211 20.7263C10.7592 20.7559 10.5002 20.4215 10.5122 20.1234C10.5477 19.2364 10.8315 18.4506 11.4145 17.773C11.7268 17.4101 12.0936 17.1182 12.5198 16.8987C12.5345 16.8911 12.5544 16.8889 12.5583 16.8649L12.5587 16.866ZM12.8481 13.9958C13.3973 13.9958 13.9465 13.9941 14.4957 13.9975C14.5916 13.9982 14.629 13.9701 14.6267 13.8705C14.6211 13.6225 14.6222 13.3742 14.6262 13.1262C14.6277 13.0364 14.6001 12.9998 14.5047 13.0001C13.4026 13.0024 12.3006 13.0022 11.1988 13.0001C11.1076 13.0001 11.0712 13.0286 11.0729 13.1224C11.0774 13.3634 11.0742 13.6044 11.0744 13.8454C11.0744 13.9946 11.0755 13.9956 11.2217 13.9956C11.7638 13.9958 12.3059 13.9956 12.8479 13.9956L12.8481 13.9958ZM23.4874 20.5249C23.4787 20.6882 23.5407 20.8512 23.6229 21.0109C23.7909 21.3375 24.3153 21.6083 24.7352 21.4972C25.2596 21.3588 25.552 20.8995 25.5331 20.4634C25.5169 20.0862 25.3161 19.7973 24.9782 19.6118C24.96 19.6018 24.9409 19.5827 24.9199 19.5969C24.8951 19.6138 24.9032 19.6416 24.9097 19.6652C24.9285 19.7333 24.9512 19.8001 24.9683 19.8686C25.0068 20.0216 25.0522 20.1668 24.9953 20.334C24.9131 20.5749 24.6667 20.7304 24.4407 20.7201C24.188 20.7089 23.9692 20.5202 23.914 20.2947C23.8813 20.1613 23.8417 20.0298 23.8046 19.8975C23.7864 19.8333 23.7605 19.8107 23.7111 19.8777C23.5733 20.0649 23.4827 20.2681 23.4879 20.5249H23.4874ZM14.5627 19.956C14.7071 19.956 14.8246 19.9575 14.9423 19.9552C14.9789 19.9543 15.031 19.9756 15.0479 19.9309C15.0624 19.8924 15.0218 19.8595 14.9967 19.8318C14.7326 19.5397 14.2943 19.3997 13.8878 19.5512C13.4313 19.7214 13.1049 20.243 13.2509 20.7578C13.3924 21.2571 13.7894 21.504 14.2129 21.5245C14.5062 21.5387 14.7596 21.4166 14.9687 21.2105C14.9929 21.1867 15.0355 21.1622 15.0218 21.1258C15.0068 21.0858 14.9588 21.1065 14.9257 21.1045C14.6528 21.0894 14.3797 21.1235 14.1057 21.0703C13.8592 21.0224 13.677 20.8046 13.6468 20.5378C13.6233 20.3309 13.8228 20.0711 14.0289 19.9979C14.2142 19.932 14.403 19.9701 14.5629 19.9565L14.5627 19.956Z" fill="#1F1F1F"/>
</svg>
