<svg width="38" height="33" viewBox="0 0 38 33" fill="none" xmlns="http://www.w3.org/2000/svg">
<rect opacity="0.1" width="38" height="33" rx="5" fill="#1F1F1F"/>
<path d="M18.9096 9.99292C22.449 10.0173 25.2809 12.8232 25.2737 16.3793C25.2664 19.9243 22.4355 22.7483 18.883 22.7341C15.2959 22.7196 12.5193 19.8693 12.5279 16.3612C12.5367 12.7623 15.398 10.0107 18.9093 9.99292H18.9096ZM23.6721 16.3599C23.7018 13.7697 21.5631 11.5839 18.904 11.5833C16.249 11.5829 14.1198 13.7483 14.1228 16.3714C14.1258 18.983 16.2424 21.1457 18.8994 21.1487C21.5693 21.152 23.709 18.9527 23.6721 16.3599Z" fill="#1F1F1F"/>
<path d="M12.4131 13.7612C12.4434 14.5161 12.1332 15.0499 11.5387 15.4385C11.2894 15.6015 11.1584 15.8416 11.1577 16.1456C11.1567 16.5741 11.1992 17.0005 11.2519 17.4241C11.3204 17.974 11.3546 18.526 11.3912 19.078C11.4452 19.8871 11.4986 20.6966 11.543 21.5065C11.5759 22.1085 11.6059 22.7108 11.6155 23.3135C11.6211 23.6659 11.49 23.9837 11.2311 24.229C10.859 24.5818 10.3377 24.5264 10.0498 24.1003C9.84497 23.797 9.76264 23.4554 9.78932 23.0849C9.81929 22.6697 9.83839 22.2531 9.85749 21.8371C9.90294 20.8461 9.95069 19.8552 10.0314 18.8662C10.1032 17.9869 10.1898 17.1089 10.2524 16.2292C10.2761 15.8973 10.1348 15.62 9.85288 15.4273C9.47579 15.1695 9.17742 14.853 9.05721 14.3962C8.97488 14.082 9.0009 13.7639 9.01703 13.4467C9.04206 12.954 9.07829 12.4623 9.10661 11.9697C9.14383 11.3242 9.17676 10.6783 9.21496 10.0325C9.22715 9.8267 9.38358 9.66499 9.55121 9.67158C9.73037 9.67883 9.85518 9.82933 9.8453 10.0569C9.80644 10.955 9.76034 11.8527 9.71884 12.7508C9.71192 12.8987 9.70731 13.0472 9.71489 13.1951C9.72312 13.3555 9.82357 13.4431 9.98231 13.4484C10.1427 13.4536 10.2405 13.3739 10.2622 13.2112C10.2777 13.0973 10.2915 12.9824 10.2939 12.8674C10.3093 12.0941 10.3199 11.3209 10.3357 10.5479C10.3393 10.3727 10.3505 10.1972 10.3699 10.023C10.394 9.80825 10.527 9.67224 10.6966 9.67191C10.86 9.67125 11.0088 9.81451 11.0447 10.0098C11.0526 10.0526 11.0563 10.0971 11.0569 10.1405C11.0704 10.8644 11.0819 11.5883 11.0971 12.3122C11.103 12.597 11.1149 12.8822 11.1287 13.1668C11.1379 13.3575 11.2387 13.4517 11.4198 13.4487C11.5885 13.4461 11.6886 13.3489 11.682 13.1605C11.6563 12.4429 11.623 11.726 11.5921 11.0087C11.5779 10.6856 11.5568 10.3625 11.5496 10.0394C11.545 9.83724 11.6859 9.68146 11.8555 9.6752C12.0209 9.66895 12.1701 9.82571 12.1813 10.0226C12.2287 10.8545 12.2672 11.6868 12.3239 12.5177C12.3528 12.9442 12.4036 13.369 12.4128 13.7606L12.4131 13.7612Z" fill="#1F1F1F"/>
<path d="M27.8209 13.2422C27.8209 14.3672 27.8226 15.4921 27.8203 16.6171C27.819 17.3091 27.9092 17.9951 27.9497 18.6844C27.98 19.2044 28.032 19.7224 28.0613 20.2424C28.1154 21.2057 28.1756 22.1687 28.1934 23.1336C28.1967 23.3148 28.1947 23.4949 28.1516 23.6734C28.0376 24.1434 27.6563 24.4793 27.2436 24.4549C26.8823 24.4338 26.6818 24.1911 26.5237 23.901C26.4545 23.7742 26.4084 23.6355 26.4038 23.4929C26.391 23.0872 26.39 22.6815 26.4186 22.2757C26.4404 21.9695 26.4585 21.6628 26.4654 21.3562C26.4832 20.5665 26.5695 19.7814 26.6215 18.9939C26.6627 18.3705 26.714 17.7481 26.7644 17.1253C26.776 16.985 26.7443 16.9178 26.5807 16.9159C26.1874 16.9112 25.9454 16.6593 25.9444 16.2681C25.9421 15.2969 25.9223 14.3247 25.9507 13.3541C25.9793 12.3658 26.1805 11.4088 26.5958 10.5018C26.8138 10.0259 27.0704 9.57537 27.3793 9.1535C27.4514 9.05503 27.5268 8.96841 27.6632 9.01122C27.7989 9.05371 27.819 9.17227 27.8193 9.29083C27.8219 9.87243 27.8209 10.4544 27.8213 11.036C27.8213 11.7714 27.8213 12.5068 27.8213 13.2422H27.8209Z" fill="#1F1F1F"/>
<path d="M15.3619 16.3669C15.3144 14.4713 16.9305 12.8131 18.8982 12.8154C20.841 12.8177 22.4586 14.3919 22.454 16.3742C22.4497 18.3551 20.8294 19.9165 18.8989 19.9181C16.9403 19.9198 15.3167 18.2781 15.3622 16.3673L15.3619 16.3669Z" fill="#1F1F1F"/>
</svg>
