<svg width="21" height="21" viewBox="0 0 21 21" fill="none" xmlns="http://www.w3.org/2000/svg">
<path d="M18.0653 11.5281C18.1091 11.2 18.1311 10.8609 18.1311 10.5C18.1311 10.15 18.1091 9.8 18.0543 9.47187L20.2799 7.74375C20.4772 7.59062 20.532 7.29531 20.4114 7.07656L18.3065 3.44531C18.1749 3.20469 17.9008 3.12812 17.6596 3.20469L15.0394 4.25469C14.4912 3.83906 13.9102 3.48906 13.2634 3.22656L12.8687 0.448437C12.8248 0.185937 12.6056 0 12.3424 0H8.13255C7.86943 0 7.66113 0.185937 7.61728 0.448437L7.2226 3.22656C6.57577 3.48906 5.98375 3.85 5.44655 4.25469L2.82633 3.20469C2.58514 3.11719 2.31106 3.20469 2.1795 3.44531L0.0855139 7.07656C-0.0460453 7.30625 -0.0021924 7.59062 0.217073 7.74375L2.44262 9.47187C2.3878 9.8 2.34395 10.1609 2.34395 10.5C2.34395 10.8391 2.36587 11.2 2.42069 11.5281L0.195146 13.2563C-0.00219238 13.4094 -0.0570086 13.7047 0.0635874 13.9234L2.16853 17.5547C2.30009 17.7953 2.57418 17.8719 2.81537 17.7953L5.43559 16.7453C5.98375 17.1609 6.56481 17.5109 7.21164 17.7734L7.60632 20.5516C7.66113 20.8141 7.86943 21 8.13255 21H12.3424C12.6056 21 12.8248 20.8141 12.8577 20.5516L13.2524 17.7734C13.8992 17.5109 14.4912 17.1609 15.0284 16.7453L17.6487 17.7953C17.8899 17.8828 18.1639 17.7953 18.2955 17.5547L20.4005 13.9234C20.532 13.6828 20.4772 13.4094 20.2689 13.2563L18.0653 11.5281ZM10.2375 14.4375C8.06677 14.4375 6.29072 12.6656 6.29072 10.5C6.29072 8.33438 8.06677 6.5625 10.2375 6.5625C12.4082 6.5625 14.1843 8.33438 14.1843 10.5C14.1843 12.6656 12.4082 14.4375 10.2375 14.4375Z" fill="black"/>
</svg>
