<svg width="23" height="21" viewBox="0 0 23 21" fill="none" xmlns="http://www.w3.org/2000/svg">
<path d="M19.8947 4.42105H17.4853C17.6068 4.07842 17.6842 3.70263 17.6842 3.31579C17.6842 1.48105 16.2032 0 14.3684 0C13.2079 0 12.2021 0.596842 11.6053 1.49211L11.0526 2.23263L10.5 1.48105C9.90316 0.596842 8.89737 0 7.73684 0C5.90211 0 4.42105 1.48105 4.42105 3.31579C4.42105 3.70263 4.49842 4.07842 4.62 4.42105H2.21053C0.983684 4.42105 0.0110526 5.40474 0.0110526 6.63158L0 18.7895C0 20.0163 0.983684 21 2.21053 21H19.8947C21.1216 21 22.1053 20.0163 22.1053 18.7895V6.63158C22.1053 5.40474 21.1216 4.42105 19.8947 4.42105ZM14.3684 2.21053C14.9763 2.21053 15.4737 2.70789 15.4737 3.31579C15.4737 3.92368 14.9763 4.42105 14.3684 4.42105C13.7605 4.42105 13.2632 3.92368 13.2632 3.31579C13.2632 2.70789 13.7605 2.21053 14.3684 2.21053ZM7.73684 2.21053C8.34474 2.21053 8.8421 2.70789 8.8421 3.31579C8.8421 3.92368 8.34474 4.42105 7.73684 4.42105C7.12895 4.42105 6.63158 3.92368 6.63158 3.31579C6.63158 2.70789 7.12895 2.21053 7.73684 2.21053ZM19.8947 18.7895H2.21053V16.5789H19.8947V18.7895ZM19.8947 13.2632H2.21053V6.63158H7.82526L5.52632 9.75947L7.31684 11.0526L9.94737 7.47158L11.0526 5.96842L12.1579 7.47158L14.7884 11.0526L16.5789 9.75947L14.28 6.63158H19.8947V13.2632Z" fill="black"/>
</svg>
