<svg width="17" height="14" viewBox="0 0 17 14" fill="none" xmlns="http://www.w3.org/2000/svg">
<path d="M8.49992 10.9375C6.48516 10.9375 4.85422 9.33213 4.70415 7.29777L1.91775 5.08104C1.55145 5.55408 1.21438 6.05419 0.942377 6.60106C0.881613 6.72479 0.849954 6.86149 0.849954 7.00014C0.849954 7.13878 0.881613 7.27548 0.942377 7.39922C2.38286 10.2924 5.2346 12.2499 8.49992 12.2499C9.21471 12.2499 9.90427 12.1406 10.5689 11.9639L9.19054 10.8661C8.96291 10.9114 8.73175 10.9352 8.49992 10.9375ZM16.8357 12.5261L13.8993 10.1899C14.7913 9.41604 15.5249 8.46733 16.0575 7.39894C16.1182 7.27521 16.1499 7.13851 16.1499 6.99986C16.1499 6.86122 16.1182 6.72452 16.0575 6.60079C14.617 3.70757 11.7652 1.75005 8.49992 1.75005C7.13235 1.75176 5.78699 2.10617 4.58674 2.7809L1.20747 0.0922193C1.1634 0.0569209 1.11301 0.0309071 1.05918 0.0156644C1.00534 0.000421713 0.949112 -0.00375112 0.893708 0.00338436C0.838304 0.0105198 0.784809 0.0288238 0.73628 0.0572502C0.687751 0.0856767 0.645138 0.123668 0.610878 0.169054L0.0894579 0.860024C0.020289 0.95162 -0.0107052 1.06775 0.00329218 1.18287C0.0172895 1.29798 0.0751321 1.40266 0.164098 1.47388L15.7924 13.9078C15.8364 13.9431 15.8868 13.9691 15.9407 13.9843C15.9945 13.9996 16.0507 14.0038 16.1061 13.9966C16.1615 13.9895 16.215 13.9712 16.2636 13.9428C16.3121 13.9143 16.3547 13.8763 16.389 13.8309L16.9106 13.14C16.9798 13.0483 17.0107 12.9322 16.9967 12.8171C16.9826 12.702 16.9247 12.5973 16.8357 12.5261ZM11.9557 8.64334L10.9118 7.81265C10.9997 7.5511 11.0463 7.27674 11.0499 7C11.0551 6.59484 10.9679 6.19408 10.7953 5.8299C10.6228 5.46573 10.3696 5.14829 10.0563 4.90309C9.74288 4.65789 9.37802 4.49176 8.99097 4.41805C8.60392 4.34434 8.20547 4.3651 7.82762 4.47866C7.9878 4.70208 8.07444 4.97234 8.07492 5.25002C8.07096 5.34242 8.05724 5.4341 8.03401 5.52345L6.07875 3.96788C6.75795 3.38361 7.61478 3.06321 8.49992 3.06254C9.0023 3.06225 9.49981 3.1639 9.96401 3.36168C10.4282 3.55945 10.85 3.84947 11.2052 4.21515C11.5605 4.58084 11.8422 5.01502 12.0343 5.49286C12.2264 5.9707 12.3252 6.48284 12.3249 7C12.3249 7.59144 12.1844 8.14268 11.9557 8.64362V8.64334Z" fill="#BDBDBD"/>
</svg>
