<svg width="16" height="15" viewBox="0 0 16 15" fill="none" xmlns="http://www.w3.org/2000/svg">
<path d="M3.21778 6.49167C4.49778 8.85 6.56 10.775 9.07556 11.9833L11.0311 10.15C11.2711 9.925 11.6267 9.85 11.9378 9.95C12.9333 10.2583 14.0089 10.425 15.1111 10.425C15.6 10.425 16 10.8 16 11.2583V14.1667C16 14.625 15.6 15 15.1111 15C6.76444 15 0 8.65833 0 0.833333C0 0.375 0.4 0 0.888889 0H4C4.48889 0 4.88889 0.375 4.88889 0.833333C4.88889 1.875 5.06667 2.875 5.39556 3.80833C5.49333 4.1 5.42222 4.425 5.17333 4.65833L3.21778 6.49167Z" fill="#828282"/>
</svg>
