<svg width="40" height="40" viewBox="0 0 40 40" fill="none" xmlns="http://www.w3.org/2000/svg">
<circle cx="20" cy="20" r="19.5" fill="white" stroke="#BDBDBD"/>
<path d="M20.5245 12.7693C24.2835 12.7952 27.2912 15.7753 27.2835 19.5521C27.2758 23.3171 24.2692 26.3164 20.4962 26.3013C16.6864 26.286 13.7375 23.2587 13.7466 19.5329C13.756 15.7106 16.7949 12.7882 20.5241 12.7693H20.5245ZM25.5826 19.5315C25.614 16.7805 23.3426 14.4591 20.5185 14.4584C17.6987 14.4581 15.4374 16.7578 15.4406 19.5437C15.4437 22.3174 17.6917 24.6144 20.5137 24.6175C23.3493 24.621 25.6217 22.2853 25.5826 19.5315Z" fill="#BDBDBD"/>
<path d="M13.6249 16.7714C13.6571 17.5731 13.3276 18.1401 12.6963 18.5528C12.4315 18.7259 12.2923 18.9809 12.2916 19.3038C12.2906 19.7588 12.3357 20.2118 12.3916 20.6616C12.4644 21.2457 12.5008 21.8319 12.5396 22.4181C12.597 23.2775 12.6536 24.1373 12.7008 24.9974C12.7358 25.6368 12.7677 26.2765 12.7778 26.9166C12.7837 27.2908 12.6445 27.6284 12.3696 27.8889C11.9744 28.2635 11.4207 28.2048 11.115 27.7522C10.8974 27.43 10.81 27.0673 10.8383 26.6738C10.8701 26.2328 10.8904 25.7903 10.9107 25.3485C10.959 24.2961 11.0097 23.2436 11.0954 22.1932C11.1716 21.2593 11.2636 20.3269 11.3301 19.3926C11.3553 19.04 11.2052 18.7455 10.9058 18.5409C10.5053 18.267 10.1884 17.9309 10.0608 17.4458C9.97332 17.1121 10.001 16.7742 10.0181 16.4374C10.0447 15.9141 10.0831 15.3919 10.1132 14.8687C10.1528 14.1831 10.1877 13.4972 10.2283 12.8113C10.2412 12.5927 10.4074 12.4209 10.5854 12.4279C10.7757 12.4356 10.9083 12.5955 10.8978 12.8372C10.8565 13.791 10.8075 14.7445 10.7635 15.6983C10.7561 15.8554 10.7512 16.0131 10.7593 16.1702C10.768 16.3405 10.8747 16.4335 11.0433 16.4391C11.2136 16.4447 11.3175 16.3601 11.3406 16.1873C11.357 16.0663 11.3717 15.9442 11.3742 15.8221C11.3906 15.0009 11.4018 14.1796 11.4186 13.3587C11.4224 13.1726 11.4343 12.9862 11.455 12.8011C11.4805 12.5731 11.6218 12.4286 11.8019 12.4283C11.9754 12.4276 12.1335 12.5797 12.1716 12.7872C12.18 12.8326 12.1839 12.8798 12.1846 12.926C12.1989 13.6948 12.2112 14.4636 12.2273 15.2324C12.2336 15.535 12.2461 15.8379 12.2608 16.1401C12.2706 16.3426 12.3777 16.4426 12.57 16.4395C12.7491 16.4367 12.8554 16.3335 12.8485 16.1334C12.8212 15.3713 12.7858 14.6098 12.753 13.848C12.7379 13.5049 12.7155 13.1618 12.7078 12.8186C12.7029 12.6039 12.8526 12.4384 13.0328 12.4318C13.2084 12.4251 13.3668 12.5916 13.3787 12.8008C13.4291 13.6843 13.47 14.5682 13.5302 15.4507C13.5609 15.9036 13.6148 16.3548 13.6246 16.7707L13.6249 16.7714Z" fill="#BDBDBD"/>
<path d="M29.9892 16.2202C29.9892 17.415 29.991 18.6098 29.9885 19.8046C29.9871 20.5395 30.083 21.2681 30.126 22.0002C30.1582 22.5525 30.2134 23.1026 30.2446 23.6549C30.3019 24.678 30.3659 25.7008 30.3848 26.7256C30.3883 26.918 30.3862 27.1093 30.3404 27.2989C30.2194 27.798 29.8143 28.1548 29.3761 28.1289C28.9924 28.1065 28.7794 27.8487 28.6115 27.5406C28.538 27.4059 28.489 27.2586 28.4841 27.1072C28.4705 26.6763 28.4695 26.2454 28.4999 25.8144C28.523 25.4891 28.5422 25.1635 28.5496 24.8379C28.5684 23.9991 28.6601 23.1653 28.7153 22.3289C28.7591 21.6668 28.8136 21.0058 28.8671 20.3443C28.8794 20.1953 28.8458 20.124 28.672 20.1219C28.2543 20.117 27.9973 19.8494 27.9962 19.4339C27.9938 18.4024 27.9728 17.3699 28.0029 16.3391C28.0333 15.2894 28.247 14.273 28.6881 13.3097C28.9196 12.8043 29.1921 12.3258 29.5202 11.8777C29.5968 11.7732 29.6769 11.6812 29.8217 11.7266C29.9658 11.7718 29.9871 11.8977 29.9875 12.0236C29.9903 12.6413 29.9892 13.2593 29.9896 13.877C29.9896 14.6581 29.9896 15.4391 29.9896 16.2202H29.9892Z" fill="#BDBDBD"/>
<path d="M16.7569 19.5388C16.7066 17.5255 18.4229 15.7644 20.5128 15.7668C22.5761 15.7693 24.2942 17.4412 24.2893 19.5465C24.2847 21.6504 22.5639 23.3086 20.5135 23.3104C18.4334 23.3121 16.709 21.5685 16.7573 19.5391L16.7569 19.5388Z" fill="#BDBDBD"/>
</svg>
