<svg width="25" height="25" viewBox="0 0 25 25" fill="none" xmlns="http://www.w3.org/2000/svg">
<circle cx="12.7508" cy="12.1694" r="11.9042" fill="#828282"/>
<path d="M13.6655 11.1032C12.1908 10.713 11.7166 10.3096 11.7166 9.68132C11.7166 8.96045 12.3727 8.45783 13.4706 8.45783C14.627 8.45783 15.0558 9.01998 15.0948 9.84665H16.5305C16.485 8.70914 15.8029 7.66422 14.4451 7.32694V5.8786H12.4962V7.3071C11.2359 7.58486 10.2224 8.41815 10.2224 9.69454C10.2224 11.2222 11.4632 11.9828 13.2758 12.4259C14.8999 12.8227 15.2247 13.4047 15.2247 14.0197C15.2247 14.476 14.9064 15.2035 13.4706 15.2035C12.1324 15.2035 11.6062 14.5951 11.5347 13.8147H10.1055C10.1834 15.263 11.2488 16.0765 12.4962 16.3476V17.7828H14.4451V16.3609C15.7119 16.1162 16.7189 15.3689 16.7189 14.0131C16.7189 12.1349 15.1402 11.4934 13.6655 11.1032Z" fill="#F9F9FA"/>
</svg>
