<svg width="24" height="25" viewBox="0 0 24 25" fill="none" xmlns="http://www.w3.org/2000/svg">
<circle cx="11.9042" cy="12.1694" r="11.9042" fill="#FFCC00"/>
<path d="M12.8189 11.1032C11.3442 10.713 10.8699 10.3096 10.8699 9.68132C10.8699 8.96045 11.5261 8.45783 12.624 8.45783C13.7803 8.45783 14.2091 9.01998 14.2481 9.84665H15.6838C15.6383 8.70914 14.9562 7.66422 13.5984 7.32694V5.8786H11.6495V7.3071C10.3892 7.58486 9.37573 8.41815 9.37573 9.69454C9.37573 11.2222 10.6166 11.9828 12.4291 12.4259C14.0532 12.8227 14.378 13.4047 14.378 14.0197C14.378 14.476 14.0597 15.2035 12.624 15.2035C11.2857 15.2035 10.7595 14.5951 10.688 13.8147H9.25879C9.33675 15.263 10.4022 16.0765 11.6495 16.3476V17.7828H13.5984V16.3609C14.8653 16.1162 15.8722 15.3689 15.8722 14.0131C15.8722 12.1349 14.2936 11.4934 12.8189 11.1032Z" fill="#1F1F1F"/>
</svg>
