<svg width="40" height="40" viewBox="0 0 40 40" fill="none" xmlns="http://www.w3.org/2000/svg">
<circle cx="20" cy="20" r="20" fill="#FFCC00"/>
<path d="M12.0005 25.1909C12.0005 22.1398 12.0005 19.0891 12.0005 16.038C12.0657 16.034 12.1216 16.0654 12.1794 16.0872C14.5573 16.9904 16.9348 17.8956 19.3146 18.7944C19.4677 18.8523 19.5158 18.9292 19.5154 19.0927C19.5099 21.2457 19.5118 23.3988 19.5118 25.5518C19.5118 26.317 19.5122 27.0822 19.5111 27.8473C19.5111 28.0159 19.499 28.0222 19.3419 27.9683C19.3224 27.9615 19.3025 27.9548 19.283 27.9473C17.4167 27.2376 15.5509 26.5272 13.6843 25.8192C13.1242 25.607 12.5618 25.4003 12.0005 25.1909ZM15.9876 24.6443C15.9876 24.5178 15.9837 24.3912 15.9888 24.2647C15.9931 24.1647 15.9513 24.1116 15.8595 24.0775C15.2939 23.8649 14.7295 23.6495 14.1655 23.4329C14.0612 23.3928 14.0089 23.4107 14.0108 23.5364C14.0147 23.7895 14.014 24.0426 14.0112 24.2956C14.0104 24.3821 14.0464 24.4305 14.1257 24.4606C14.7006 24.6776 15.2748 24.8966 15.8485 25.1163C15.9579 25.158 15.9903 25.1127 15.9876 25.008C15.9845 24.887 15.9868 24.7657 15.9868 24.6443H15.9876Z" fill="#1F1F1F"/>
<path d="M27.9992 16.038V25.1909C27.93 25.2135 27.8597 25.233 27.7918 25.2587C25.4334 26.1544 23.0754 27.0508 20.7175 27.9469C20.489 28.0338 20.4882 28.0326 20.4882 27.7851C20.4882 24.8831 20.489 21.9808 20.4858 19.0788C20.4858 18.9424 20.5104 18.8595 20.6542 18.8067C21.3779 18.5405 22.0974 18.2613 22.8188 17.9884C23.0032 17.9186 23.0118 17.9253 23.0118 18.1217C23.0125 18.8392 23.0118 19.5568 23.0125 20.2743C23.0125 20.4469 23.0172 20.4501 23.1782 20.3894C23.7242 20.1823 24.2683 19.9709 24.8159 19.769C24.9432 19.7222 24.992 19.6555 24.9909 19.5159C24.9846 18.7932 24.9913 18.0701 24.985 17.3474C24.9838 17.2082 25.0315 17.1431 25.1596 17.0955C26.0579 16.7595 26.9532 16.416 27.85 16.0761C27.898 16.0579 27.9495 16.0503 27.9999 16.038H27.9992Z" fill="#1F1F1F"/>
<path d="M27.9989 15.0563C27.4376 15.2658 26.876 15.474 26.3151 15.6846C25.9346 15.8274 25.553 15.9678 25.1761 16.1198C25.0437 16.1733 24.9324 16.1638 24.8051 16.1055C23.9427 15.7088 23.0763 15.3213 22.2151 14.9223C22.0643 14.8524 21.9386 14.8516 21.7878 14.9195C21.2695 15.1527 20.7453 15.3725 20.2239 15.5982C20.1774 15.6184 20.1325 15.6414 20.0837 15.6644C20.1231 15.7235 20.1786 15.7291 20.2251 15.7485C21.0808 16.1071 21.9374 16.4649 22.7936 16.8226C22.8271 16.8365 22.8615 16.8496 22.8939 16.8663C22.9205 16.8802 22.958 16.8865 22.9611 16.9242C22.9646 16.9662 22.9232 16.969 22.8974 16.9821C22.865 16.9988 22.8303 17.0099 22.7959 17.023C21.9386 17.349 21.0801 17.6719 20.2251 18.0035C20.0692 18.0638 19.9337 18.0638 19.7771 18.0043C17.255 17.0408 14.7315 16.0829 12.2079 15.1242C12.1399 15.0984 12.0696 15.0785 12.0005 15.0563C12.0005 15.0353 12.0005 15.0143 12.0005 14.9929C12.0696 14.9702 12.1399 14.9508 12.2079 14.925C14.7311 13.9663 17.2543 13.0084 19.7759 12.0457C19.9321 11.9862 20.0673 11.9858 20.2235 12.0457C22.2577 12.8239 24.2938 13.5978 26.3299 14.3705C26.8849 14.5811 27.4423 14.7854 27.9989 14.9929V15.0563Z" fill="#1F1F1F"/>
</svg>
