<svg width="17" height="16" viewBox="0 0 17 16" fill="none" xmlns="http://www.w3.org/2000/svg">
<path d="M0.80835 7.87869V1.5C0.80835 0.671563 1.47991 0 2.30835 0H8.68704C9.08486 2.08024e-06 9.46639 0.158039 9.7477 0.439344L16.369 7.06066C16.9548 7.64644 16.9548 8.59619 16.369 9.18197L9.99032 15.5607C9.40454 16.1464 8.45479 16.1464 7.86901 15.5607L1.24769 8.93935C0.966388 8.65804 0.808352 8.27652 0.80835 7.87869ZM4.30835 2C3.47991 2 2.80835 2.67156 2.80835 3.5C2.80835 4.32844 3.47991 5 4.30835 5C5.13679 5 5.80835 4.32844 5.80835 3.5C5.80835 2.67156 5.13679 2 4.30835 2Z" fill="#FFCC00"/>
</svg>
