<svg width="27" height="22" viewBox="0 0 27 22" fill="none" xmlns="http://www.w3.org/2000/svg">
<path d="M13.6043 1.37903C18.4631 1.41248 22.3508 5.26446 22.3408 10.1463C22.3309 15.0128 18.4445 18.8897 13.5676 18.8702C8.64327 18.8503 4.83153 14.9373 4.84329 10.1215C4.8555 5.18082 8.78342 1.40344 13.6038 1.37903H13.6043ZM20.1422 10.1197C20.1829 6.56382 17.2469 3.56317 13.5966 3.56226C9.95167 3.56181 7.02879 6.53443 7.03285 10.1355C7.03692 13.7207 9.94263 16.6897 13.5902 16.6938C17.2555 16.6983 20.1929 13.6791 20.1422 10.1197Z" fill="#1F1F1F"/>
<path d="M4.68554 6.55206C4.72713 7.5883 4.30124 8.32117 3.48519 8.85466C3.14294 9.07845 2.963 9.40804 2.9621 9.82533C2.96074 10.4135 3.01906 10.999 3.0914 11.5804C3.18544 12.3354 3.23246 13.0932 3.28264 13.8509C3.35679 14.9617 3.43003 16.073 3.49106 17.1848C3.53627 18.0112 3.57742 18.8381 3.59053 19.6655C3.59821 20.1493 3.41827 20.5855 3.06292 20.9224C2.55203 21.4066 1.83634 21.3306 1.4412 20.7456C1.15999 20.3292 1.04696 19.8604 1.08358 19.3517C1.12472 18.7816 1.15095 18.2097 1.17717 17.6387C1.23956 16.2783 1.30511 14.9179 1.41588 13.5602C1.51444 12.3531 1.63335 11.1478 1.71925 9.94017C1.7518 9.48444 1.55784 9.10377 1.17084 8.83928C0.653173 8.48528 0.243562 8.0508 0.0785416 7.42373C-0.0344857 6.99242 0.00123092 6.55568 0.0233843 6.1203C0.0577446 5.44394 0.107477 4.76894 0.146358 4.09259C0.197446 3.20645 0.242657 2.31987 0.295102 1.43328C0.31183 1.15071 0.526582 0.928725 0.756706 0.937767C1.00265 0.947713 1.174 1.15433 1.16044 1.46673C1.10709 2.69964 1.0438 3.93209 0.986829 5.16499C0.977335 5.36799 0.971006 5.57189 0.981404 5.77489C0.992707 5.99506 1.1306 6.11532 1.34852 6.12256C1.56869 6.12979 1.70297 6.02038 1.73281 5.79704C1.75406 5.64061 1.77305 5.48282 1.77621 5.32504C1.79746 4.26348 1.81193 3.20193 1.83363 2.14083C1.8386 1.90031 1.85398 1.65933 1.88065 1.42017C1.91365 1.12539 2.09631 0.938671 2.32914 0.938219C2.55339 0.937315 2.75774 1.13398 2.80702 1.40208C2.81787 1.46086 2.82285 1.52189 2.82375 1.58157C2.84229 2.57531 2.85811 3.56904 2.87891 4.56278C2.88705 4.95385 2.90332 5.34538 2.92231 5.736C2.93497 5.99778 3.07331 6.12708 3.32197 6.12301C3.55345 6.11939 3.6909 5.98602 3.68185 5.72741C3.64659 4.74227 3.60093 3.75803 3.55843 2.77333C3.53899 2.32981 3.51005 1.88629 3.50011 1.44277C3.49378 1.16518 3.68728 0.95133 3.92012 0.94274C4.14707 0.93415 4.35188 1.14935 4.36725 1.41972C4.43236 2.56174 4.48525 3.70422 4.56302 4.8449C4.6028 5.43038 4.67243 6.0136 4.68509 6.55116L4.68554 6.55206Z" fill="#1F1F1F"/>
<path d="M25.8373 5.83953C25.8373 7.38393 25.8396 8.92834 25.8364 10.4727C25.8346 11.4226 25.9585 12.3644 26.0141 13.3106C26.0557 14.0245 26.1271 14.7357 26.1673 15.4496C26.2415 16.772 26.3242 18.094 26.3486 19.4186C26.3531 19.6673 26.3504 19.9146 26.2912 20.1596C26.1348 20.8048 25.6112 21.266 25.0447 21.2325C24.5488 21.2036 24.2734 20.8704 24.0564 20.4721C23.9615 20.298 23.8982 20.1077 23.8919 19.9119C23.8742 19.3549 23.8729 18.7979 23.9122 18.2409C23.942 17.8204 23.9669 17.3995 23.9764 16.9786C24.0008 15.8944 24.1193 14.8166 24.1907 13.7356C24.2472 12.8798 24.3178 12.0253 24.3869 11.1704C24.4027 10.9778 24.3593 10.8855 24.1346 10.8828C23.5948 10.8765 23.2625 10.5306 23.2612 9.99351C23.258 8.66024 23.2309 7.32561 23.2698 5.99325C23.3091 4.63647 23.5853 3.32263 24.1554 2.07753C24.4547 1.42423 24.8069 0.805742 25.231 0.226589C25.33 0.0914087 25.4336 -0.0274961 25.6207 0.0312781C25.807 0.0896003 25.8346 0.25236 25.835 0.415119C25.8386 1.21354 25.8373 2.01242 25.8377 2.81085C25.8377 3.82041 25.8377 4.82997 25.8377 5.83953H25.8373Z" fill="#1F1F1F"/>
<path d="M8.73382 10.1292C8.66872 7.52681 10.8872 5.25044 13.5886 5.2536C16.2556 5.25677 18.4763 7.41785 18.47 10.1391C18.4641 12.8585 16.2397 15.002 13.5895 15.0042C10.9008 15.0065 8.67188 12.7527 8.73427 10.1296L8.73382 10.1292Z" fill="#1F1F1F"/>
</svg>
