<svg width="27" height="22" viewBox="0 0 27 22" fill="none" xmlns="http://www.w3.org/2000/svg">
<path d="M13.6043 1.36316C18.4631 1.39662 22.3508 5.24859 22.3408 10.1305C22.3309 14.997 18.4445 18.8738 13.5676 18.8544C8.64327 18.8345 4.83153 14.9215 4.84329 10.1056C4.8555 5.16495 8.78342 1.38757 13.6038 1.36316H13.6043ZM20.1422 10.1038C20.1829 6.54795 17.2469 3.5473 13.5966 3.5464C9.95167 3.54594 7.02879 6.51856 7.03285 10.1196C7.03692 13.7048 9.94263 16.6738 13.5902 16.6779C17.2555 16.6824 20.1929 13.6632 20.1422 10.1038Z" fill="#FFCC00"/>
<path d="M4.68554 6.53619C4.72713 7.57243 4.30124 8.3053 3.48519 8.83879C3.14294 9.06258 2.963 9.39217 2.9621 9.80947C2.96074 10.3977 3.01906 10.9831 3.0914 11.5646C3.18544 12.3196 3.23246 13.0773 3.28264 13.835C3.35679 14.9459 3.43003 16.0572 3.49106 17.1689C3.53627 17.9954 3.57742 18.8223 3.59053 19.6496C3.59821 20.1334 3.41827 20.5697 3.06292 20.9065C2.55203 21.3907 1.83634 21.3147 1.4412 20.7297C1.15999 20.3133 1.04696 19.8445 1.08358 19.3359C1.12472 18.7658 1.15095 18.1938 1.17717 17.6228C1.23956 16.2624 1.30511 14.902 1.41588 13.5443C1.51444 12.3372 1.63335 11.1319 1.71925 9.9243C1.7518 9.46857 1.55784 9.0879 1.17084 8.82341C0.653173 8.46941 0.243562 8.03494 0.0785416 7.40786C-0.0344857 6.97655 0.00123092 6.53981 0.0233843 6.10443C0.0577446 5.42807 0.107477 4.75307 0.146358 4.07672C0.197446 3.19058 0.242657 2.304 0.295102 1.41741C0.31183 1.13484 0.526582 0.912855 0.756706 0.921898C1.00265 0.931844 1.174 1.13846 1.16044 1.45087C1.10709 2.68377 1.0438 3.91622 0.986829 5.14912C0.977335 5.35212 0.971006 5.55602 0.981404 5.75902C0.992707 5.97919 1.1306 6.09946 1.34852 6.10669C1.56869 6.11392 1.70297 6.00451 1.73281 5.78117C1.75406 5.62474 1.77305 5.46695 1.77621 5.30917C1.79746 4.24761 1.81193 3.18606 1.83363 2.12496C1.8386 1.88444 1.85398 1.64346 1.88065 1.4043C1.91365 1.10952 2.09631 0.922802 2.32914 0.92235C2.55339 0.921445 2.75774 1.11811 2.80702 1.38621C2.81787 1.44499 2.82285 1.50602 2.82375 1.5657C2.84229 2.55944 2.85811 3.55317 2.87891 4.54691C2.88705 4.93799 2.90332 5.32951 2.92231 5.72013C2.93497 5.98191 3.07331 6.11121 3.32197 6.10714C3.55345 6.10352 3.6909 5.97015 3.68185 5.71154C3.64659 4.7264 3.60093 3.74216 3.55843 2.75746C3.53899 2.31394 3.51005 1.87042 3.50011 1.4269C3.49378 1.14931 3.68728 0.935461 3.92012 0.926871C4.14707 0.918281 4.35188 1.13348 4.36725 1.40385C4.43236 2.54587 4.48525 3.68836 4.56302 4.82903C4.6028 5.41451 4.67243 5.99773 4.68509 6.53529L4.68554 6.53619Z" fill="#FFCC00"/>
<path d="M25.8373 5.82366C25.8373 7.36807 25.8396 8.91247 25.8364 10.4569C25.8346 11.4068 25.9585 12.3485 26.0141 13.2948C26.0557 14.0086 26.1271 14.7198 26.1673 15.4337C26.2415 16.7561 26.3242 18.0781 26.3486 19.4028C26.3531 19.6514 26.3504 19.8987 26.2912 20.1438C26.1348 20.7889 25.6112 21.2501 25.0447 21.2166C24.5488 21.1877 24.2734 20.8545 24.0564 20.4562C23.9615 20.2821 23.8982 20.0918 23.8919 19.896C23.8742 19.339 23.8729 18.782 23.9122 18.225C23.942 17.8046 23.9669 17.3836 23.9764 16.9627C24.0008 15.8786 24.1193 14.8007 24.1907 13.7198C24.2472 12.8639 24.3178 12.0094 24.3869 11.1545C24.4027 10.9619 24.3593 10.8697 24.1346 10.8669C23.5948 10.8606 23.2625 10.5147 23.2612 9.97764C23.258 8.64437 23.2309 7.30974 23.2698 5.97738C23.3091 4.6206 23.5853 3.30677 24.1554 2.06166C24.4547 1.40836 24.8069 0.789873 25.231 0.21072C25.33 0.0755395 25.4336 -0.0433652 25.6207 0.015409C25.807 0.0737311 25.8346 0.236491 25.835 0.39925C25.8386 1.19768 25.8373 1.99655 25.8377 2.79498C25.8377 3.80454 25.8377 4.8141 25.8377 5.82366H25.8373Z" fill="#FFCC00"/>
<path d="M8.73382 10.1133C8.66872 7.51094 10.8872 5.23457 13.5886 5.23774C16.2556 5.2409 18.4763 7.40198 18.47 10.1232C18.4641 12.8427 16.2397 14.9861 13.5895 14.9884C10.9008 14.9906 8.67188 12.7369 8.73427 10.1137L8.73382 10.1133Z" fill="#FFCC00"/>
</svg>
