<svg width="153" height="124" viewBox="0 0 153 124" fill="none" xmlns="http://www.w3.org/2000/svg">
<path d="M78.9881 8.29578C107.2 8.49003 129.773 30.8559 129.716 59.2018C129.658 87.4584 107.092 109.969 78.7754 109.856C50.1828 109.74 28.0506 87.02 28.1188 59.0574C28.1897 30.3703 50.9966 8.43753 78.9854 8.29578H78.9881ZM116.95 59.0469C117.186 38.4005 100.139 20.9777 78.9434 20.9724C57.7799 20.9698 40.8086 38.2298 40.8322 59.1388C40.8558 79.9559 57.7274 97.1949 78.9067 97.2186C100.188 97.2448 117.244 79.7144 116.95 59.0469Z" fill="#1F1F1F"/>
<path d="M27.2058 38.3325C27.4474 44.3493 24.9745 48.6045 20.2362 51.7022C18.249 53.0016 17.2042 54.9153 17.199 57.3383C17.1911 60.7535 17.5297 64.153 17.9497 67.5289C18.4958 71.9128 18.7688 76.3125 19.0601 80.7122C19.4907 87.1621 19.9159 93.6146 20.2703 100.07C20.5328 104.868 20.7717 109.67 20.8478 114.474C20.8925 117.283 19.8477 119.816 17.7843 121.771C14.818 124.583 10.6624 124.142 8.3681 120.745C6.73529 118.327 6.07901 115.605 6.29165 112.652C6.53053 109.342 6.68279 106.021 6.83504 102.705C7.19731 94.8064 7.57795 86.9074 8.2211 79.0242C8.79337 72.0152 9.48377 65.0167 9.98254 58.005C10.1715 55.3589 9.04538 53.1486 6.79829 51.6129C3.79255 49.5575 1.4142 47.0347 0.45604 43.3937C-0.200236 40.8894 0.00714713 38.3535 0.135777 35.8255C0.335285 31.8984 0.624047 27.9791 0.849805 24.0519C1.14644 18.9067 1.40895 13.7589 1.71346 8.61108C1.81059 6.97039 3.05752 5.68147 4.39369 5.73397C5.82175 5.79172 6.81667 6.9914 6.73791 8.80534C6.42815 15.964 6.06064 23.12 5.72987 30.2787C5.67475 31.4574 5.63799 32.6413 5.69837 33.82C5.764 35.0984 6.56466 35.7967 7.82996 35.8387C9.10838 35.8807 9.88804 35.2454 10.0613 33.9486C10.1847 33.0403 10.2949 32.1241 10.3133 31.208C10.4367 25.0442 10.5207 18.8805 10.6467 12.7194C10.6756 11.3228 10.7648 9.92364 10.9197 8.53496C11.1113 6.82339 12.1719 5.73922 13.5238 5.7366C14.8259 5.73135 16.0124 6.87327 16.2985 8.42995C16.3615 8.77122 16.3904 9.12561 16.3957 9.47212C16.5033 15.2421 16.5952 21.0121 16.7159 26.7821C16.7632 29.0528 16.8577 31.3261 16.9679 33.5942C17.0414 35.1141 17.8447 35.8649 19.2885 35.8413C20.6326 35.8203 21.4306 35.0459 21.3781 33.5443C21.1734 27.8242 20.9082 22.1094 20.6615 16.3919C20.5486 13.8167 20.3806 11.2414 20.3228 8.66621C20.2861 7.0544 21.4096 5.81272 22.7615 5.76285C24.0793 5.71297 25.2685 6.96252 25.3578 8.53233C25.7358 15.1633 26.0429 21.797 26.4944 28.4201C26.7255 31.8196 27.1297 35.206 27.2032 38.3273L27.2058 38.3325Z" fill="#1F1F1F"/>
<path d="M150.023 34.1953C150.023 43.1626 150.036 52.13 150.017 61.0973C150.007 66.6127 150.726 72.0808 151.049 77.5751C151.29 81.7202 151.705 85.8495 151.939 89.9945C152.369 97.6729 152.85 105.349 152.991 113.04C153.018 114.484 153.002 115.92 152.658 117.343C151.75 121.089 148.71 123.766 145.421 123.572C142.541 123.404 140.942 121.469 139.682 119.157C139.131 118.146 138.763 117.041 138.727 115.904C138.624 112.67 138.616 109.436 138.845 106.202C139.018 103.761 139.162 101.317 139.218 98.8726C139.359 92.5776 140.047 86.3193 140.462 80.0427C140.79 75.0734 141.2 70.112 141.601 65.1479C141.693 64.0296 141.441 63.4941 140.136 63.4783C137.002 63.4416 135.073 61.4334 135.065 58.3147C135.046 50.5733 134.889 42.824 135.115 35.0878C135.343 27.2099 136.947 19.5813 140.257 12.3518C141.995 8.55852 144.04 4.96738 146.502 1.60462C147.077 0.819712 147.678 0.12931 148.765 0.470573C149.847 0.809212 150.007 1.75425 150.009 2.69929C150.03 7.33522 150.023 11.9738 150.025 16.6097C150.025 22.4716 150.025 28.3334 150.025 34.1953H150.023Z" fill="#1F1F1F"/>
<path d="M50.712 59.1021C50.334 43.992 63.2153 30.7746 78.9003 30.793C94.3858 30.8114 107.28 43.3594 107.244 59.1599C107.209 74.9499 94.2939 87.3955 78.9056 87.4086C63.2941 87.4217 50.3523 74.3356 50.7146 59.1047L50.712 59.1021Z" fill="#1F1F1F"/>
</svg>
