<svg width="11" height="15" viewBox="0 0 11 15" fill="none" xmlns="http://www.w3.org/2000/svg">
<path d="M10.6563 0H8.39323C8.08672 0 7.9349 0.37793 8.14974 0.600586L8.63385 1.0957L6.32214 3.45996C5.6862 3.0498 4.93281 2.8125 4.125 2.8125C1.84766 2.8125 0 4.70215 0 7.03125C0 9.03809 1.37214 10.7197 3.20833 11.1445V11.9531H2.17708C1.98802 11.9531 1.83333 12.1113 1.83333 12.3047V13.4766C1.83333 13.6699 1.98802 13.8281 2.17708 13.8281H3.20833V14.6484C3.20833 14.8418 3.36302 15 3.55208 15H4.69792C4.88698 15 5.04167 14.8418 5.04167 14.6484V13.8281H6.07292C6.26198 13.8281 6.41667 13.6699 6.41667 13.4766V12.3047C6.41667 12.1113 6.26198 11.9531 6.07292 11.9531H5.04167V11.1445C6.87786 10.7168 8.25 9.03809 8.25 7.03125C8.25 6.20508 8.01797 5.43457 7.61693 4.78418L9.92865 2.41992L10.4128 2.91504C10.6305 3.1377 11 2.97949 11 2.66602V0.351562C11 0.158203 10.8453 0 10.6563 0ZM4.125 9.375C2.86172 9.375 1.83333 8.32324 1.83333 7.03125C1.83333 5.73926 2.86172 4.6875 4.125 4.6875C5.38828 4.6875 6.41667 5.73926 6.41667 7.03125C6.41667 8.32324 5.38828 9.375 4.125 9.375Z" fill="#828282"/>
</svg>
