<svg width="23" height="13" viewBox="0 0 23 13" fill="none" xmlns="http://www.w3.org/2000/svg">
<path fill-rule="evenodd" clip-rule="evenodd" d="M8.40073 6.51764C8.42857 6.51526 8.45705 6.51283 8.48199 6.53258C8.47911 6.5511 8.46673 6.55598 8.45465 6.56075C8.45105 6.56217 8.44747 6.56358 8.44418 6.56534C8.03059 6.78488 7.67453 7.07674 7.37145 7.43965C6.80558 8.11719 6.53013 8.903 6.49564 9.79008C6.48401 10.0881 6.73537 10.4225 7.08664 10.3929C7.34486 10.371 7.57004 10.1543 7.58437 9.89006C7.59725 9.65393 7.6147 9.4161 7.67723 9.18742C7.81683 8.6773 8.0767 8.24248 8.46911 7.89191C8.83929 7.56112 9.27138 7.35392 9.75166 7.29351C10.0909 7.25096 10.4386 7.25777 10.7791 7.35988C11.1726 7.47794 11.5199 7.67152 11.8186 7.95466C12.1886 8.30524 12.432 8.73686 12.5529 9.23698C12.5576 9.25644 12.5627 9.27598 12.5679 9.29562C12.5893 9.37775 12.6112 9.46163 12.6055 9.54884C12.6036 9.57862 12.5976 9.60628 12.5646 9.61479C12.5311 9.62351 12.5018 9.61585 12.484 9.58352L12.4814 9.57891C12.4687 9.55587 12.4555 9.53206 12.4491 9.50693C12.3016 8.93044 11.9769 8.47712 11.5078 8.1374C11.0292 7.79086 10.4943 7.64685 9.9031 7.69811C9.52855 7.73066 9.18309 7.83766 8.86921 8.0372C8.18161 8.47436 7.78317 9.10105 7.69697 9.93686C7.66082 10.2868 7.7005 10.6227 7.80312 10.949C7.97782 11.5042 8.31476 11.945 8.79255 12.2607C9.43092 12.6825 10.1293 12.7746 10.8464 12.5415C11.6402 12.2837 12.1664 11.7214 12.4275 10.9114C12.4659 10.792 12.5197 10.7676 12.6259 10.768C13.3286 10.7707 14.0314 10.7724 14.7341 10.768C15.037 10.7663 15.3274 10.701 15.606 10.5714C15.9833 10.3962 16.3058 10.1393 16.628 9.8827C16.7039 9.82223 16.7798 9.76179 16.8564 9.70243C17.2083 9.42964 17.5209 9.11052 17.8333 8.79156C17.8912 8.73245 17.9491 8.67335 18.0072 8.61454C18.2706 8.348 18.5452 8.09357 18.8344 7.85638C18.839 7.85259 18.8439 7.848 18.8489 7.84322C18.8744 7.81909 18.9049 7.79022 18.9378 7.83532C18.974 7.88489 18.9761 7.9419 18.9219 7.98615C18.9138 7.99269 18.9044 7.99738 18.8949 8.00208C18.8887 8.00517 18.8824 8.00826 18.8766 8.01189C18.1082 8.4818 17.7035 9.18572 17.6422 10.0887C17.6192 10.4306 17.6865 10.7748 17.8217 11.0928C18.1661 11.9029 18.7478 12.4273 19.6051 12.6072C20.0154 12.6934 20.4248 12.6774 20.8201 12.5432C21.4057 12.3443 21.8656 11.9727 22.1806 11.4232C22.3092 11.199 22.3945 10.9571 22.455 10.7048C22.5004 10.5153 22.4993 10.3236 22.4982 10.1317C22.4979 10.0798 22.4976 10.0279 22.4982 9.976C22.5005 9.77859 22.4508 9.59054 22.3933 9.40653C22.2809 9.04744 22.0956 8.72942 21.8386 8.45819C21.5009 8.10166 21.0991 7.86128 20.6238 7.74534C20.5412 7.72527 20.4579 7.71871 20.3748 7.71217C20.2967 7.70603 20.2188 7.6999 20.1419 7.68259C20.0858 7.67003 20.0314 7.65685 20.0141 7.59132C20.0052 7.55787 19.9976 7.52407 19.99 7.49028C19.9798 7.44501 19.9696 7.39976 19.9564 7.35541C19.9379 7.29372 19.9628 7.28393 20.0154 7.28096C20.3513 7.26202 20.6745 7.31648 20.9886 7.43986C21.1032 7.48504 21.2102 7.54509 21.3172 7.60512C21.3921 7.64712 21.4669 7.68911 21.5443 7.72598C21.7393 7.81894 21.9886 7.76172 22.15 7.60749C22.3116 7.45305 22.3233 7.14502 22.2524 6.98399C22.1878 6.83657 22.0667 6.75297 21.9381 6.67192C21.396 6.32985 20.8004 6.17477 20.1716 6.13542C20.048 6.12755 19.9244 6.12904 19.8014 6.16669C19.7992 6.16736 19.797 6.16805 19.7947 6.16875C19.7412 6.1852 19.6604 6.21004 19.6333 6.11968C19.575 5.92418 19.5226 5.72677 19.4707 5.52936C19.4591 5.48533 19.4748 5.45639 19.5259 5.48235C19.6979 5.56957 19.8808 5.61062 20.0702 5.64062C20.2227 5.66465 20.3737 5.66997 20.5249 5.66125C20.7981 5.64572 21.0114 5.51617 21.1577 5.27643C21.317 5.01477 21.3962 4.72163 21.4095 4.4219C21.4108 4.39218 21.4122 4.36243 21.4136 4.33266C21.4276 4.03515 21.4417 3.73541 21.3798 3.43761C21.3376 3.23552 21.2904 3.03854 21.1928 2.85687C21.08 2.64712 20.9304 2.45949 20.6876 2.44141C20.4144 2.42099 20.1373 2.40057 19.8625 2.46694C19.4624 2.56352 19.1537 2.78837 18.9202 3.12916C18.9174 3.13317 18.9149 3.13758 18.9123 3.142C18.9021 3.15962 18.8917 3.17748 18.8685 3.1717C18.8468 3.16632 18.8447 3.14701 18.8427 3.12793C18.842 3.12138 18.8413 3.11487 18.8398 3.10895C18.8321 3.07886 18.8244 3.04874 18.8168 3.01861C18.7932 2.92585 18.7695 2.833 18.7451 2.7405C18.7133 2.62053 18.6812 2.50061 18.6492 2.38067C18.5885 2.15375 18.5278 1.92675 18.4692 1.6992C18.4333 1.55966 18.4146 1.5386 18.2716 1.5386C18.1512 1.53853 18.0307 1.53864 17.9103 1.53875C17.6292 1.539 17.3481 1.53925 17.067 1.53732C16.9687 1.53668 16.8755 1.55115 16.7826 1.58263C16.5684 1.65517 16.4066 1.91108 16.433 2.16359C16.454 2.36419 16.6135 2.61159 16.874 2.64946C17.0274 2.67181 17.1807 2.66929 17.3339 2.66677C17.3776 2.66606 17.4212 2.66534 17.4648 2.6652C17.5541 2.66477 17.5978 2.69796 17.6187 2.78284C17.6581 2.94172 17.6998 3.09995 17.7415 3.25824C17.7474 3.28052 17.7533 3.3028 17.7592 3.32508C17.8506 3.67246 17.9422 4.01963 18.0342 4.3668C18.0359 4.37319 18.0381 4.37979 18.0403 4.38646C18.0497 4.41511 18.0595 4.44503 18.0334 4.46487C18.011 4.48195 17.9898 4.46409 17.97 4.44741C17.9639 4.44227 17.958 4.43725 17.9522 4.43339C17.6871 4.2564 17.3973 4.17386 17.0803 4.17492C16.1906 4.17812 15.3008 4.17833 14.4111 4.17386C14.264 4.17322 14.1205 4.1896 13.9811 4.22726C13.3517 4.39722 12.8781 4.93372 12.8151 5.61743C12.808 5.69465 12.7823 5.71869 12.709 5.68976C12.3888 5.56382 12.0602 5.47618 11.7168 5.44746C11.5442 5.43299 11.5292 5.40896 11.5292 5.22899V0.857868C11.5292 0.667902 11.5282 0.666626 11.3456 0.666626H6.18383C6.00082 0.666626 5.99874 0.668753 5.99874 0.856804C5.99874 2.39184 5.99874 3.92688 5.99854 5.46193C5.99854 5.4715 5.99869 5.48105 5.99884 5.49059C5.99909 5.50584 5.99933 5.52107 5.99895 5.53638C5.99708 5.62573 6.04154 5.66529 6.12671 5.66465C6.16974 5.66425 6.2128 5.66473 6.25586 5.6652C6.32712 5.66599 6.39838 5.66677 6.46947 5.66359C6.5617 5.65955 6.57832 5.69188 6.54072 5.774C6.37349 6.13989 6.71854 6.53428 7.05507 6.52216C7.37156 6.51081 7.6886 6.51372 8.00555 6.51663C8.12838 6.51776 8.2512 6.51888 8.37397 6.51918C8.38272 6.51918 8.39169 6.51841 8.40073 6.51764ZM9.16262 3.66225C9.02936 3.66236 8.8961 3.66246 8.76285 3.66246C8.23687 3.66246 7.71047 3.66246 7.18428 3.66225C7.0424 3.66225 7.04136 3.66119 7.04136 3.51207C7.04129 3.4379 7.04154 3.36374 7.0418 3.28958C7.04236 3.12272 7.04292 2.95586 7.0399 2.78901C7.03824 2.69519 7.07356 2.66669 7.16205 2.66669C8.23146 2.66882 9.30108 2.66903 10.3707 2.66669C10.4634 2.66648 10.4902 2.70306 10.4887 2.79284C10.4847 3.04088 10.4837 3.28913 10.4891 3.53717C10.4914 3.63672 10.455 3.6648 10.362 3.66417C9.96219 3.66161 9.5624 3.66193 9.16262 3.66225ZM19.2208 10.6776C19.141 10.5178 19.0808 10.3549 19.0893 10.1915C19.0843 9.93473 19.1726 9.73157 19.3064 9.54437C19.3544 9.47736 19.3795 9.49992 19.3971 9.56416C19.407 9.60061 19.4171 9.63699 19.4272 9.67336C19.4538 9.76904 19.4803 9.86468 19.5033 9.96132C19.5569 10.1868 19.7692 10.3755 20.0145 10.3868C20.2339 10.397 20.473 10.2415 20.5528 10.0007C20.6039 9.84609 20.5701 9.71024 20.5351 9.56975C20.5323 9.55828 20.5294 9.54677 20.5266 9.53523C20.5168 9.49487 20.5051 9.45511 20.4935 9.41532C20.4853 9.38758 20.4772 9.35983 20.4697 9.33186L20.4693 9.33057C20.4632 9.30724 20.456 9.28008 20.4796 9.26357C20.496 9.25216 20.5111 9.26217 20.5255 9.27175C20.5291 9.27413 20.5326 9.27648 20.5362 9.27847C20.8642 9.46396 21.059 9.75285 21.0748 10.13C21.0931 10.5661 20.8093 11.0254 20.3004 11.1639C19.8928 11.2749 19.3839 11.0041 19.2208 10.6776ZM10.5435 9.62291C10.5065 9.62279 10.4678 9.62266 10.427 9.62266C10.376 9.62714 10.3219 9.62607 10.266 9.62497C10.1518 9.62271 10.0297 9.6203 9.90891 9.66457C9.70887 9.73774 9.51526 9.99748 9.53811 10.2045C9.5674 10.4712 9.74418 10.6891 9.98349 10.7369C10.1536 10.7709 10.3233 10.7693 10.4929 10.7676C10.5884 10.7667 10.6839 10.7657 10.7793 10.7712C10.788 10.7717 10.7976 10.7706 10.8075 10.7694C10.8342 10.7664 10.862 10.7632 10.8726 10.7924C10.8832 10.8215 10.859 10.843 10.8368 10.8626C10.8312 10.8675 10.8258 10.8723 10.8211 10.8771C10.6181 11.0832 10.3722 11.2053 10.0876 11.1911C9.67646 11.1707 9.29111 10.9237 9.1538 10.4244C9.01213 9.90963 9.32892 9.38802 9.77202 9.21784C10.1665 9.06638 10.5919 9.20635 10.8483 9.49843C10.8519 9.50252 10.8558 9.50672 10.8598 9.51105C10.8831 9.53596 10.91 9.56475 10.8979 9.59756C10.8856 9.63118 10.8539 9.62745 10.8239 9.6239C10.814 9.62274 10.8043 9.6216 10.7955 9.62181C10.7146 9.62347 10.6337 9.6232 10.5435 9.62291ZM1.5006 5.66662C1.5006 5.39048 1.72446 5.16662 2.0006 5.16662H4.0006C4.27675 5.16662 4.5006 5.39048 4.5006 5.66662C4.5006 5.94276 4.27675 6.16662 4.0006 6.16662H2.0006C1.72446 6.16662 1.5006 5.94276 1.5006 5.66662ZM0 7.6667C0 7.39055 0.223858 7.1667 0.5 7.1667H5.5C5.77614 7.1667 6 7.39055 6 7.6667C6 7.94284 5.77614 8.1667 5.5 8.1667H0.5C0.223858 8.1667 0 7.94284 0 7.6667Z" fill="#1F1F1F"/>
</svg>
