<svg width="12" height="12" viewBox="0 0 12 12" fill="none" xmlns="http://www.w3.org/2000/svg">
<path d="M0 9.89443C0 7.60586 0 5.31758 0 3.029C0.0489264 3.02603 0.0908214 3.04953 0.134181 3.0659C1.9178 3.74337 3.70112 4.42232 5.4862 5.09652C5.60104 5.13996 5.63708 5.19768 5.63679 5.32026C5.63268 6.93523 5.63415 8.55021 5.63415 10.1652C5.63415 10.7391 5.63444 11.313 5.63356 11.887C5.63356 12.0134 5.62448 12.0182 5.50671 11.9777C5.49206 11.9727 5.47712 11.9676 5.46247 11.9619C4.06265 11.4297 2.66312 10.8968 1.263 10.3657C0.842881 10.2065 0.421001 10.0515 0 9.89443ZM2.99066 9.48444C2.99066 9.38953 2.98773 9.29462 2.99154 9.19971C2.99476 9.12473 2.96341 9.08486 2.89457 9.05928C2.47034 8.8998 2.047 8.73824 1.62395 8.5758C1.54572 8.54575 1.50646 8.55913 1.50793 8.65345C1.51086 8.84327 1.51027 9.03309 1.50822 9.22292C1.50764 9.28778 1.53459 9.32408 1.59406 9.34669C2.02532 9.50943 2.45599 9.67367 2.88636 9.8385C2.96839 9.86974 2.99271 9.83582 2.99066 9.75727C2.98832 9.66653 2.99007 9.57549 2.99007 9.48444H2.99066Z" fill="#4F4F4F"/>
<path d="M11.9989 3.02905V9.89448C11.947 9.91144 11.8943 9.92602 11.8433 9.94536C10.0744 10.6172 8.30569 11.2896 6.53701 11.9617C6.36562 12.0269 6.36504 12.026 6.36504 11.8403C6.36504 9.6636 6.36563 7.4866 6.36328 5.30989C6.36328 5.20754 6.38174 5.14536 6.48955 5.10579C7.03243 4.90615 7.57208 4.69669 8.1132 4.49199C8.25149 4.43963 8.25793 4.44468 8.25793 4.59196C8.25852 5.13019 8.25793 5.66841 8.25852 6.20664C8.25852 6.33606 8.26203 6.33844 8.38274 6.29292C8.79231 6.13761 9.20042 5.97903 9.61117 5.82759C9.70668 5.79248 9.7433 5.7425 9.74242 5.63777C9.73774 5.09567 9.74272 4.55328 9.73803 4.01119C9.73715 3.90676 9.77289 3.85796 9.86899 3.82226C10.5428 3.57025 11.2143 3.3126 11.887 3.05762C11.923 3.04393 11.9617 3.03828 11.9995 3.02905H11.9989Z" fill="#4F4F4F"/>
<path d="M12.0001 2.29267C11.5791 2.44976 11.1578 2.60596 10.7371 2.76395C10.4518 2.87106 10.1656 2.97638 9.88283 3.09033C9.78352 3.1305 9.70002 3.12336 9.60451 3.07962C8.95763 2.7821 8.30781 2.49141 7.66181 2.1921C7.54872 2.13974 7.45439 2.13914 7.3413 2.19002C6.95252 2.36496 6.55936 2.52979 6.16824 2.69909C6.13337 2.71426 6.09968 2.73152 6.06306 2.74877C6.09265 2.79311 6.13425 2.79727 6.16912 2.81185C6.81102 3.08081 7.45351 3.34918 8.0957 3.61755C8.1209 3.62797 8.14668 3.63778 8.171 3.65028C8.19092 3.66069 8.21904 3.66545 8.22139 3.69372C8.22402 3.72526 8.19297 3.72734 8.17363 3.73716C8.14932 3.74965 8.12324 3.75798 8.09746 3.7678C7.45439 4.01237 6.81043 4.25456 6.16912 4.50329C6.05222 4.54851 5.95056 4.54851 5.83308 4.50388C3.94136 3.78119 2.04846 3.06266 0.155568 2.34354C0.104591 2.3242 0.0518561 2.30933 0 2.29267C0 2.2769 0 2.26113 0 2.24506C0.0518561 2.2281 0.104591 2.21352 0.155568 2.19418C2.04817 1.47506 3.94077 0.756535 5.8322 0.0344379C5.94939 -0.0101911 6.05076 -0.0104886 6.16795 0.0344379C7.69374 0.618185 9.22101 1.19866 10.7483 1.77824C11.1646 1.93623 11.5827 2.08946 12.0001 2.24506V2.29267Z" fill="#4F4F4F"/>
</svg>
