<svg width="13" height="13" viewBox="0 0 13 13" fill="none" xmlns="http://www.w3.org/2000/svg">
<path d="M8.20421 10.8887L8.83289 11.9826C8.22936 12.2592 7.56925 12.4415 6.88399 12.5106V11.2407C7.34921 11.1841 7.78929 11.0647 8.20421 10.8887ZM1.26992 6.88399H0C0.0691543 7.57554 0.25147 8.22936 0.528087 8.83289L1.62198 8.20421C1.44595 7.78929 1.3265 7.34921 1.26992 6.88399ZM8.20421 1.62198L8.83289 0.528087C8.22936 0.25147 7.57554 0.0691543 6.88399 0V1.26992C7.34921 1.3265 7.78929 1.44595 8.20421 1.62198ZM11.2407 5.62664H12.5106C12.4415 4.9351 12.2592 4.28128 11.9826 3.67775L10.8887 4.30642C11.0647 4.72135 11.1841 5.16142 11.2407 5.62664ZM4.30642 10.8887L3.67775 11.9826C4.28128 12.2592 4.94139 12.4415 5.62664 12.5106V11.2407C5.16142 11.1841 4.72135 11.0647 4.30642 10.8887ZM5.62664 1.26992V0C4.9351 0.0691543 4.28128 0.25147 3.67775 0.528087L4.30642 1.62198C4.72135 1.44595 5.16142 1.3265 5.62664 1.26992ZM10.2537 3.21882L11.3476 2.58385C10.9515 2.03691 10.4674 1.55283 9.92049 1.15676L9.28553 2.25066C9.65645 2.53356 9.97708 2.85419 10.2537 3.21882ZM1.62198 4.30642L0.528087 3.67775C0.25147 4.28128 0.0691543 4.9351 0 5.62664H1.26992C1.3265 5.16142 1.44595 4.72135 1.62198 4.30642ZM11.2407 6.88399C11.1841 7.34921 11.0647 7.78929 10.8887 8.20421L11.9826 8.83289C12.2592 8.22936 12.4415 7.56925 12.5106 6.88399H11.2407ZM9.29182 10.2537L9.92678 11.3476C10.4737 10.9515 10.9578 10.4674 11.3539 9.92049L10.26 9.28553C9.97708 9.65645 9.65645 9.97708 9.29182 10.2537ZM3.21882 2.25694L2.59014 1.15676C2.03691 1.55911 1.55911 2.03691 1.16305 2.59014L2.25694 3.2251C2.53356 2.85419 2.85419 2.53356 3.21882 2.25694ZM2.25694 9.29182L1.16305 9.92049C1.55911 10.4674 2.04319 10.9515 2.59014 11.3476L3.2251 10.2537C2.85419 9.97708 2.53356 9.65645 2.25694 9.29182ZM6.88399 3.11194H5.62664V6.51308L8.32366 9.21009L9.21009 8.32366L6.88399 5.99756V3.11194Z" fill="#4F4F4F"/>
</svg>
