<svg width="20" height="15" viewBox="0 0 20 15" fill="none" xmlns="http://www.w3.org/2000/svg">
<path d="M19.5428 4.06299C19.6988 4.06299 19.8237 4.12847 19.9142 4.25787C20.0048 4.38884 20.0251 4.53071 19.9735 4.68818L19.6614 5.6252C19.6099 5.83411 19.4663 5.93701 19.2306 5.93701H18.0959C18.4877 6.17088 18.7998 6.47802 19.034 6.85532C19.2681 7.23262 19.3851 7.65669 19.3851 8.12442V10C19.3851 10.6252 19.176 11.1724 18.7593 11.6402V14.0614C18.7593 14.3218 18.6687 14.5432 18.4861 14.7256C18.3035 14.908 18.0819 14.9984 17.8212 14.9984H15.9436C15.6829 14.9984 15.4613 14.908 15.2787 14.7256C15.0961 14.5432 15.0055 14.3218 15.0055 14.0614V12.4992H4.99462V14.0614C4.99462 14.3218 4.90409 14.5432 4.72148 14.7256C4.53887 14.908 4.31724 14.9984 4.05658 14.9984H2.17895C1.9183 14.9984 1.69666 14.908 1.51405 14.7256C1.33144 14.5432 1.24091 14.3218 1.24091 14.0614V11.6402C0.824181 11.1709 0.615035 10.6252 0.615035 10V8.12442C0.615035 7.65513 0.732094 7.23262 0.966213 6.85532C1.20033 6.47802 1.51405 6.17244 1.90425 5.93701H0.771114C0.536995 5.93701 0.393402 5.83255 0.340335 5.6252L0.0281764 4.68818C-0.0233298 4.53227 -0.00460028 4.38884 0.0874865 4.25787C0.178012 4.12847 0.302876 4.06299 0.458955 4.06299H2.60973L2.92189 3.24291C3.28711 2.27939 3.89894 1.49829 4.7605 0.899595C5.62206 0.300904 6.57258 0 7.61519 0H12.3865C13.4291 0 14.3812 0.299345 15.2412 0.898036C16.1012 1.49673 16.7146 2.27783 17.0798 3.24135L17.392 4.06143H19.5428V4.06299ZM3.4307 10.3118H3.58678C4.10809 10.3118 4.4858 10.2853 4.72148 10.2339C5.11324 10.1559 5.30834 9.9735 5.30834 9.68662C5.30834 9.3483 5.08046 8.95073 4.62471 8.49548C4.16896 8.04023 3.77096 7.8126 3.43227 7.8126C3.09357 7.8126 2.80014 7.93577 2.55198 8.18366C2.30381 8.43156 2.18051 8.72467 2.18051 9.06299C2.18051 9.40131 2.30381 9.69442 2.55198 9.94231C2.80014 10.1902 3.09357 10.3134 3.43227 10.3134L3.4307 10.3118ZM5.26932 4.13938L4.68246 5.62364H15.3193L14.7324 4.13938C14.5498 3.64515 14.2439 3.24758 13.8131 2.94824C13.3823 2.64889 12.9078 2.49922 12.385 2.49922H7.61363C7.09233 2.49922 6.61628 2.64889 6.1855 2.94824C5.75473 3.24758 5.44881 3.64515 5.2662 4.13938H5.26932ZM16.571 10.3118C16.9097 10.3118 17.2031 10.1887 17.4513 9.94075C17.6995 9.69286 17.8228 9.39975 17.8228 9.06143C17.8228 8.72311 17.6995 8.43 17.4513 8.1821C17.2031 7.93421 16.9097 7.81104 16.571 7.81104C16.2323 7.81104 15.8343 8.03867 15.3786 8.49392C14.9228 8.94917 14.6949 9.34674 14.6949 9.68506C14.6949 9.97194 14.89 10.1543 15.2818 10.2323C15.5159 10.2838 15.8952 10.3103 16.4165 10.3103H16.5726L16.571 10.3118Z" fill="#1D1D1B"/>
</svg>
