<svg width="20" height="16" viewBox="0 0 20 16" fill="none" xmlns="http://www.w3.org/2000/svg">
<path d="M19.5428 5.04712C19.6988 5.04712 19.8237 5.1126 19.9142 5.242C20.0048 5.37297 20.0251 5.51485 19.9735 5.67231L19.6614 6.60933C19.6099 6.81824 19.4663 6.92114 19.2306 6.92114H18.0959C18.4877 7.15501 18.7998 7.46215 19.034 7.83945C19.2681 8.21675 19.3851 8.64082 19.3851 9.10855V10.9841C19.3851 11.6093 19.176 12.1566 18.7593 12.6243V15.0456C18.7593 15.3059 18.6687 15.5273 18.4861 15.7097C18.3035 15.8921 18.0819 15.9826 17.8212 15.9826H15.9436C15.6829 15.9826 15.4613 15.8921 15.2787 15.7097C15.0961 15.5273 15.0055 15.3059 15.0055 15.0456V13.4834H4.99462V15.0456C4.99462 15.3059 4.90409 15.5273 4.72148 15.7097C4.53887 15.8921 4.31724 15.9826 4.05658 15.9826H2.17895C1.9183 15.9826 1.69666 15.8921 1.51405 15.7097C1.33144 15.5273 1.24091 15.3059 1.24091 15.0456V12.6243C0.824181 12.155 0.615035 11.6093 0.615035 10.9841V9.10855C0.615035 8.63926 0.732094 8.21675 0.966213 7.83945C1.20033 7.46215 1.51405 7.15657 1.90425 6.92114H0.771114C0.536995 6.92114 0.393402 6.81669 0.340335 6.60933L0.0281764 5.67231C-0.0233298 5.5164 -0.00460028 5.37297 0.0874865 5.242C0.178012 5.1126 0.302876 5.04712 0.458955 5.04712H2.60973L2.92189 4.22704C3.28711 3.26352 3.89894 2.48242 4.7605 1.88373C5.62206 1.28504 6.57258 0.984131 7.61519 0.984131H12.3865C13.4291 0.984131 14.3812 1.28348 15.2412 1.88217C16.1012 2.48086 16.7146 3.26196 17.0798 4.22548L17.392 5.04556H19.5428V5.04712ZM3.4307 11.2959H3.58678C4.10809 11.2959 4.4858 11.2694 4.72148 11.218C5.11324 11.14 5.30834 10.9576 5.30834 10.6708C5.30834 10.3324 5.08046 9.93486 4.62471 9.47961C4.16896 9.02436 3.77096 8.79673 3.43227 8.79673C3.09357 8.79673 2.80014 8.9199 2.55198 9.16779C2.30381 9.41569 2.18051 9.7088 2.18051 10.0471C2.18051 10.3854 2.30381 10.6785 2.55198 10.9264C2.80014 11.1743 3.09357 11.2975 3.43227 11.2975L3.4307 11.2959ZM5.26932 5.12351L4.68246 6.60777H15.3193L14.7324 5.12351C14.5498 4.62928 14.2439 4.23171 13.8131 3.93237C13.3823 3.63302 12.9078 3.48335 12.385 3.48335H7.61363C7.09233 3.48335 6.61628 3.63302 6.1855 3.93237C5.75473 4.23171 5.44881 4.62928 5.2662 5.12351H5.26932ZM16.571 11.2959C16.9097 11.2959 17.2031 11.1728 17.4513 10.9249C17.6995 10.677 17.8228 10.3839 17.8228 10.0456C17.8228 9.70724 17.6995 9.41413 17.4513 9.16623C17.2031 8.91834 16.9097 8.79517 16.571 8.79517C16.2323 8.79517 15.8343 9.0228 15.3786 9.47805C14.9228 9.9333 14.6949 10.3309 14.6949 10.6692C14.6949 10.9561 14.89 11.1385 15.2818 11.2164C15.5159 11.2679 15.8952 11.2944 16.4165 11.2944H16.5726L16.571 11.2959Z" fill="#FFCC00"/>
</svg>
