<svg width="51" height="40" viewBox="0 0 51 40" fill="none" xmlns="http://www.w3.org/2000/svg">
<path d="M43.9683 15.9395C44.3195 15.9395 44.6004 16.0836 44.804 16.3683C45.0077 16.6564 45.0534 16.9686 44.9375 17.3151L44.2352 19.3767C44.1193 19.8364 43.7962 20.0628 43.266 20.0628H40.7131C41.5945 20.5773 42.2968 21.2531 42.8235 22.0833C43.3503 22.9134 43.6136 23.8465 43.6136 24.8756V29.0023C43.6136 30.3779 43.1431 31.5819 42.2055 32.611V37.9384C42.2055 38.5112 42.0018 38.9983 41.591 39.3997C41.1801 39.801 40.6815 40 40.0951 40H35.8707C35.2842 40 34.7856 39.801 34.3747 39.3997C33.9639 38.9983 33.7602 38.5112 33.7602 37.9384V34.5011H11.2371V37.9384C11.2371 38.5112 11.0335 38.9983 10.6226 39.3997C10.2118 39.801 9.71313 40 9.1267 40H4.90231C4.31588 40 3.81724 39.801 3.40639 39.3997C2.99554 38.9983 2.79187 38.5112 2.79187 37.9384V32.611C1.85428 31.5785 1.38374 30.3779 1.38374 29.0023V24.8756C1.38374 23.843 1.6471 22.9134 2.17383 22.0833C2.70057 21.2531 3.40639 20.5808 4.28428 20.0628H1.73489C1.20816 20.0628 0.885095 19.833 0.765703 19.3767L0.0633926 17.3151C-0.0524886 16.972 -0.0103499 16.6564 0.196831 16.3683C0.400501 16.0836 0.681425 15.9395 1.03258 15.9395H5.8715L6.57381 14.1351C7.39551 12.0152 8.77204 10.2966 10.7104 8.97931C12.6488 7.66206 14.7873 7 17.133 7H27.8678C30.2136 7 32.3556 7.65863 34.2905 8.97588C36.2253 10.2931 37.6054 12.0117 38.4271 14.1317L39.1294 15.9361H43.9683V15.9395ZM7.71857 29.6884H8.06973C9.24258 29.6884 10.0924 29.63 10.6226 29.5168C11.504 29.3453 11.943 28.944 11.943 28.3128C11.943 27.5684 11.4303 26.6937 10.4049 25.692C9.37953 24.6903 8.48409 24.1895 7.72208 24.1895C6.96008 24.1895 6.29991 24.4605 5.74157 25.0059C5.18323 25.5514 4.90582 26.1963 4.90582 26.9406C4.90582 27.685 5.18323 28.3299 5.74157 28.8754C6.29991 29.4208 6.96008 29.6918 7.72208 29.6918L7.71857 29.6884ZM11.8552 16.1076L10.5348 19.3733H34.466L33.1457 16.1076C32.7349 15.0202 32.0466 14.1454 31.0774 13.4868C30.1082 12.8282 29.0407 12.4989 27.8643 12.4989H17.1295C15.9567 12.4989 14.8856 12.8282 13.9165 13.4868C12.9473 14.1454 12.259 15.0202 11.8482 16.1076H11.8552ZM37.2823 29.6884C38.0443 29.6884 38.7045 29.4174 39.2628 28.8719C39.8212 28.3265 40.0986 27.6816 40.0986 26.9372C40.0986 26.1928 39.8212 25.5479 39.2628 25.0025C38.7045 24.4571 38.0443 24.1861 37.2823 24.1861C36.5203 24.1861 35.6249 24.6869 34.5995 25.6886C33.5741 26.6902 33.0614 27.565 33.0614 28.3094C33.0614 28.9405 33.5004 29.3419 34.3818 29.5134C34.9085 29.6266 35.7618 29.6849 36.9347 29.6849H37.2858L37.2823 29.6884Z" fill="#FFCC00"/>
<mask id="path-2-outside-1_422_133" maskUnits="userSpaceOnUse" x="27" y="0" width="25" height="24" fill="black">
<rect fill="white" x="27" width="25" height="24"/>
<path d="M38.8627 9.31764C38.8627 8.82927 38.8604 8.34071 38.8648 7.85234C38.8656 7.75931 38.8294 7.70128 38.754 7.64779C38.0745 7.16689 37.3944 6.68658 36.7202 6.199C36.5205 6.05463 36.4423 5.84733 36.4944 5.61288C36.5459 5.38059 36.6974 5.23111 36.9434 5.15952C37.1582 5.09697 37.3349 5.15657 37.5013 5.27458C37.9234 5.57433 38.3432 5.87663 38.7649 6.17697C38.7877 6.1933 38.8127 6.22595 38.8451 6.2051C38.8732 6.187 38.8625 6.15081 38.8625 6.1221C38.8631 5.63038 38.8577 5.13867 38.865 4.64696C38.8693 4.34819 39.0101 4.11571 39.309 4.02818C39.6856 3.91784 40.0695 4.14384 40.1036 4.49079C40.1546 5.01338 40.1135 5.53892 40.1253 6.06289C40.1265 6.116 40.0945 6.19212 40.148 6.2167C40.191 6.23637 40.2361 6.16773 40.2793 6.13724C40.6772 5.85598 41.0755 5.57511 41.4705 5.29031C41.5981 5.19846 41.739 5.12628 41.8947 5.13356C42.1374 5.14496 42.3385 5.24842 42.4507 5.46733C42.5872 5.73325 42.5154 6.02572 42.2666 6.20431C41.5935 6.68776 40.919 7.16945 40.2427 7.64897C40.1606 7.70718 40.1217 7.76875 40.122 7.86925C40.1253 8.84619 40.1238 9.82293 40.124 10.7999C40.124 10.9411 40.1321 10.9462 40.2553 10.8758C40.9783 10.4627 41.7008 10.0485 42.4239 9.63549C42.5772 9.54777 42.7302 9.45926 42.8869 9.37724C42.9828 9.32708 43.0275 9.26454 43.0378 9.15459C43.0709 8.80351 43.1074 8.45262 43.1482 8.10233C43.1763 7.86198 43.192 7.61946 43.2255 7.3799C43.2602 7.13109 43.248 6.87619 43.3241 6.63289C43.4016 6.38467 43.7038 6.19959 43.9649 6.2348C44.2977 6.27984 44.5302 6.50878 44.5286 6.80066C44.5269 7.10867 44.4761 7.41255 44.4349 7.71722C44.4223 7.81123 44.4172 7.90623 44.4132 8.00103C44.4072 8.13851 44.3816 8.27364 44.3657 8.40994C44.3622 8.44003 44.3458 8.48193 44.3804 8.50042C44.4087 8.51556 44.4372 8.48488 44.4626 8.47032C44.8374 8.25613 45.2107 8.03939 45.5867 7.82736C45.7221 7.75085 45.8488 7.65998 46.0028 7.61297C46.3234 7.51522 46.6889 7.69774 46.779 8.00693C46.8567 8.27403 46.7641 8.53031 46.5138 8.67881C46.0464 8.95594 45.5729 9.22343 45.1022 9.49545C45.0799 9.50843 45.0416 9.51118 45.0424 9.54265C45.0433 9.57865 45.0813 9.58199 45.1098 9.593C45.6163 9.78949 46.1242 9.98264 46.6281 10.1846C46.9018 10.2942 47.0415 10.568 46.9843 10.8488C46.9326 11.102 46.6616 11.3175 46.3836 11.3225C46.2823 11.3242 46.1862 11.2939 46.0936 11.2579C45.3868 10.9832 44.6805 10.707 43.9742 10.4315C43.9711 10.4303 43.9676 10.4295 43.9645 10.4279C43.7606 10.317 43.5876 10.3432 43.3813 10.4667C42.5772 10.9476 41.7578 11.4057 40.944 11.8722C40.8998 11.8976 40.8572 11.9263 40.8105 11.9465C40.7113 11.9892 40.746 12.0199 40.8142 12.0588C41.425 12.4078 42.035 12.7579 42.645 13.1078C42.9456 13.2803 43.2472 13.4514 43.5455 13.6274C43.6203 13.6717 43.6871 13.6797 43.7681 13.6479C44.1048 13.5151 44.443 13.3853 44.7808 13.2549C45.2494 13.0739 45.7163 12.8895 46.1874 12.7146C46.4727 12.6088 46.8284 12.7592 46.9411 13.0197C47.0856 13.3536 46.959 13.686 46.6198 13.8233C46.164 14.0076 45.7029 14.1799 45.244 14.3573C45.2186 14.3671 45.1892 14.3727 45.1683 14.388C45.1293 14.4171 45.0476 14.4026 45.0482 14.4625C45.0486 14.5082 45.1175 14.5196 45.1574 14.5426C45.5989 14.7975 46.0402 15.0526 46.4847 15.3028C46.7825 15.4706 46.9061 15.8301 46.7197 16.1251C46.5374 16.4135 46.1572 16.5012 45.8455 16.3236C45.3819 16.0594 44.9186 15.7943 44.4552 15.5298C44.4322 15.5168 44.4101 15.489 44.3824 15.5024C44.3483 15.5189 44.3603 15.5567 44.3653 15.5827C44.4147 15.8401 44.4234 16.1019 44.4513 16.3613C44.4827 16.6536 44.5437 16.9451 44.5284 17.2413C44.5098 17.6014 44.0622 17.8733 43.711 17.7379C43.4419 17.6343 43.3055 17.4445 43.2817 17.1676C43.2526 16.8291 43.2073 16.4917 43.1701 16.1538C43.1451 15.9263 43.1211 15.6987 43.0981 15.4711C43.0746 15.2371 43.0516 15.003 43.031 14.7688C43.0258 14.7098 42.984 14.6858 42.939 14.66C42.4607 14.3874 41.9821 14.1148 41.5042 13.8418C41.0852 13.6024 40.6664 13.3625 40.2474 13.1231C40.2164 13.1054 40.186 13.07 40.1461 13.0944C40.1131 13.1147 40.1242 13.1542 40.1242 13.1859C40.1238 14.1758 40.1253 15.1659 40.1215 16.1558C40.1211 16.2543 40.1757 16.3043 40.2464 16.3545C40.7181 16.6892 41.1896 17.0244 41.6611 17.3597C41.8678 17.5068 42.0778 17.65 42.2798 17.803C42.4881 17.9608 42.5626 18.1736 42.4972 18.4173C42.4365 18.6439 42.2783 18.7849 42.0353 18.8467C41.8155 18.9025 41.6369 18.8315 41.4689 18.7117C41.0555 18.4173 40.6437 18.1211 40.2305 17.8265C40.2046 17.808 40.1811 17.7678 40.1441 17.7851C40.1077 17.8021 40.1244 17.8443 40.1244 17.8752C40.1234 18.3538 40.1244 18.8325 40.1234 19.311C40.1234 19.4159 40.1213 19.5227 40.0814 19.621C39.9671 19.9031 39.6531 20.0539 39.3418 19.9823C39.0677 19.9194 38.8645 19.6649 38.8635 19.3763C38.8617 18.9009 38.8629 18.4258 38.8629 17.9504C38.8629 17.9242 38.8639 17.8978 38.8625 17.8717C38.861 17.8463 38.8712 17.8139 38.8433 17.7995C38.8096 17.7822 38.7856 17.8129 38.7624 17.8294C38.5307 17.994 38.3004 18.1602 38.0689 18.3252C37.8705 18.4667 37.6749 18.6118 37.4717 18.7465C37.1567 18.9552 36.8115 18.8887 36.5893 18.6091C36.3919 18.3605 36.4603 17.9919 36.7421 17.7891C37.2582 17.4177 37.7771 17.0493 38.2944 16.6794C38.4596 16.5614 38.6229 16.441 38.7891 16.3246C38.8412 16.288 38.8637 16.2457 38.8637 16.1839C38.8625 15.1808 38.8631 14.1777 38.8625 13.1746C38.8625 13.0806 38.8464 13.071 38.7637 13.1178C38.335 13.3609 37.9075 13.6058 37.4796 13.8505C37.0428 14.1 36.6118 14.3593 36.167 14.5949C36.007 14.6797 35.9634 14.7884 35.9493 14.9434C35.9047 15.435 35.8503 15.9255 35.7941 16.416C35.7654 16.6656 35.7342 16.9156 35.7184 17.167C35.6982 17.4905 35.4938 17.725 35.1767 17.7733C34.8807 17.8186 34.5824 17.6412 34.4953 17.3755C34.4406 17.2085 34.4761 17.0372 34.4879 16.8682C34.5001 16.6953 34.5187 16.5214 34.5468 16.3513C34.5877 16.1023 34.5733 15.8484 34.6345 15.6021C34.6427 15.5685 34.6582 15.5233 34.6254 15.5006C34.5929 15.4782 34.5634 15.5187 34.5359 15.5343C34.0627 15.8024 33.5927 16.0754 33.1172 16.3399C32.8454 16.4912 32.5008 16.416 32.314 16.1778C32.1052 15.9117 32.1538 15.5396 32.444 15.3529C32.7402 15.1625 33.0529 14.995 33.3591 14.8185C33.5387 14.7151 33.7198 14.6142 33.8996 14.5109C33.924 14.497 33.9662 14.4926 33.9589 14.4533C33.9536 14.4236 33.9193 14.4216 33.894 14.4118C33.3971 14.2188 32.8989 14.0288 32.4041 13.8314C31.989 13.6656 31.8708 13.2187 32.1581 12.891C32.323 12.703 32.6007 12.6182 32.9397 12.7553C33.4713 12.9703 34.0088 13.1725 34.5435 13.3804C34.763 13.4657 34.9832 13.5503 35.2011 13.6394C35.2908 13.6762 35.3641 13.6725 35.4518 13.6221C36.3386 13.1123 37.2289 12.6076 38.1171 12.1C38.3172 11.9857 38.2963 12.0081 38.1208 11.9074C37.4872 11.5435 36.8531 11.1805 36.2187 10.8178C35.9502 10.6643 35.6798 10.5141 35.4119 10.3597C35.3561 10.3274 35.3081 10.3247 35.2476 10.3485C34.7039 10.5621 34.1592 10.7733 33.6144 10.9844C33.3564 11.0843 33.0982 11.184 32.8384 11.28C32.519 11.398 32.1724 11.2383 32.0366 10.9147C31.9231 10.6441 32.0841 10.2948 32.3778 10.1805C32.8874 9.98264 33.3975 9.78635 33.9075 9.58966C33.93 9.58101 33.9579 9.5755 33.9598 9.54875C33.9622 9.51551 33.9269 9.5104 33.9048 9.49761C33.4422 9.23169 32.9798 8.96577 32.5163 8.70123C32.308 8.58224 32.1837 8.40699 32.1872 8.17864C32.1945 7.70738 32.7131 7.44205 33.1059 7.65919C33.5106 7.88302 33.9097 8.1157 34.3116 8.34425C34.3943 8.39126 34.4786 8.43571 34.5607 8.4835C34.6202 8.51812 34.6568 8.50986 34.638 8.43885C34.5747 8.19929 34.5871 7.95206 34.5522 7.70935C34.5183 7.47372 34.4838 7.23573 34.478 6.99656C34.4759 6.90864 34.4577 6.8223 34.471 6.73241C34.5117 6.45587 34.7496 6.24148 35.0419 6.22752C35.3544 6.21277 35.6074 6.39529 35.6879 6.67301C35.7224 6.7926 35.7244 6.91297 35.7339 7.03216C35.7637 7.40055 35.815 7.76678 35.8545 8.13399C35.8813 8.38339 35.8855 8.63613 35.9407 8.88356C35.964 8.9882 35.9655 9.09834 35.9684 9.20612C35.9702 9.27418 36.001 9.31135 36.0605 9.34479C36.4698 9.57432 36.8775 9.80601 37.2847 10.0387C37.7537 10.3068 38.2213 10.5772 38.6903 10.8453C38.7382 10.8728 38.7918 10.9318 38.8428 10.9025C38.8873 10.8772 38.861 10.8048 38.861 10.7536C38.8623 10.2751 38.8619 9.79638 38.8619 9.31784L38.8627 9.31764Z"/>
</mask>
<path d="M38.8627 9.31764C38.8627 8.82927 38.8604 8.34071 38.8648 7.85234C38.8656 7.75931 38.8294 7.70128 38.754 7.64779C38.0745 7.16689 37.3944 6.68658 36.7202 6.199C36.5205 6.05463 36.4423 5.84733 36.4944 5.61288C36.5459 5.38059 36.6974 5.23111 36.9434 5.15952C37.1582 5.09697 37.3349 5.15657 37.5013 5.27458C37.9234 5.57433 38.3432 5.87663 38.7649 6.17697C38.7877 6.1933 38.8127 6.22595 38.8451 6.2051C38.8732 6.187 38.8625 6.15081 38.8625 6.1221C38.8631 5.63038 38.8577 5.13867 38.865 4.64696C38.8693 4.34819 39.0101 4.11571 39.309 4.02818C39.6856 3.91784 40.0695 4.14384 40.1036 4.49079C40.1546 5.01338 40.1135 5.53892 40.1253 6.06289C40.1265 6.116 40.0945 6.19212 40.148 6.2167C40.191 6.23637 40.2361 6.16773 40.2793 6.13724C40.6772 5.85598 41.0755 5.57511 41.4705 5.29031C41.5981 5.19846 41.739 5.12628 41.8947 5.13356C42.1374 5.14496 42.3385 5.24842 42.4507 5.46733C42.5872 5.73325 42.5154 6.02572 42.2666 6.20431C41.5935 6.68776 40.919 7.16945 40.2427 7.64897C40.1606 7.70718 40.1217 7.76875 40.122 7.86925C40.1253 8.84619 40.1238 9.82293 40.124 10.7999C40.124 10.9411 40.1321 10.9462 40.2553 10.8758C40.9783 10.4627 41.7008 10.0485 42.4239 9.63549C42.5772 9.54777 42.7302 9.45926 42.8869 9.37724C42.9828 9.32708 43.0275 9.26454 43.0378 9.15459C43.0709 8.80351 43.1074 8.45262 43.1482 8.10233C43.1763 7.86198 43.192 7.61946 43.2255 7.3799C43.2602 7.13109 43.248 6.87619 43.3241 6.63289C43.4016 6.38467 43.7038 6.19959 43.9649 6.2348C44.2977 6.27984 44.5302 6.50878 44.5286 6.80066C44.5269 7.10867 44.4761 7.41255 44.4349 7.71722C44.4223 7.81123 44.4172 7.90623 44.4132 8.00103C44.4072 8.13851 44.3816 8.27364 44.3657 8.40994C44.3622 8.44003 44.3458 8.48193 44.3804 8.50042C44.4087 8.51556 44.4372 8.48488 44.4626 8.47032C44.8374 8.25613 45.2107 8.03939 45.5867 7.82736C45.7221 7.75085 45.8488 7.65998 46.0028 7.61297C46.3234 7.51522 46.6889 7.69774 46.779 8.00693C46.8567 8.27403 46.7641 8.53031 46.5138 8.67881C46.0464 8.95594 45.5729 9.22343 45.1022 9.49545C45.0799 9.50843 45.0416 9.51118 45.0424 9.54265C45.0433 9.57865 45.0813 9.58199 45.1098 9.593C45.6163 9.78949 46.1242 9.98264 46.6281 10.1846C46.9018 10.2942 47.0415 10.568 46.9843 10.8488C46.9326 11.102 46.6616 11.3175 46.3836 11.3225C46.2823 11.3242 46.1862 11.2939 46.0936 11.2579C45.3868 10.9832 44.6805 10.707 43.9742 10.4315C43.9711 10.4303 43.9676 10.4295 43.9645 10.4279C43.7606 10.317 43.5876 10.3432 43.3813 10.4667C42.5772 10.9476 41.7578 11.4057 40.944 11.8722C40.8998 11.8976 40.8572 11.9263 40.8105 11.9465C40.7113 11.9892 40.746 12.0199 40.8142 12.0588C41.425 12.4078 42.035 12.7579 42.645 13.1078C42.9456 13.2803 43.2472 13.4514 43.5455 13.6274C43.6203 13.6717 43.6871 13.6797 43.7681 13.6479C44.1048 13.5151 44.443 13.3853 44.7808 13.2549C45.2494 13.0739 45.7163 12.8895 46.1874 12.7146C46.4727 12.6088 46.8284 12.7592 46.9411 13.0197C47.0856 13.3536 46.959 13.686 46.6198 13.8233C46.164 14.0076 45.7029 14.1799 45.244 14.3573C45.2186 14.3671 45.1892 14.3727 45.1683 14.388C45.1293 14.4171 45.0476 14.4026 45.0482 14.4625C45.0486 14.5082 45.1175 14.5196 45.1574 14.5426C45.5989 14.7975 46.0402 15.0526 46.4847 15.3028C46.7825 15.4706 46.9061 15.8301 46.7197 16.1251C46.5374 16.4135 46.1572 16.5012 45.8455 16.3236C45.3819 16.0594 44.9186 15.7943 44.4552 15.5298C44.4322 15.5168 44.4101 15.489 44.3824 15.5024C44.3483 15.5189 44.3603 15.5567 44.3653 15.5827C44.4147 15.8401 44.4234 16.1019 44.4513 16.3613C44.4827 16.6536 44.5437 16.9451 44.5284 17.2413C44.5098 17.6014 44.0622 17.8733 43.711 17.7379C43.4419 17.6343 43.3055 17.4445 43.2817 17.1676C43.2526 16.8291 43.2073 16.4917 43.1701 16.1538C43.1451 15.9263 43.1211 15.6987 43.0981 15.4711C43.0746 15.2371 43.0516 15.003 43.031 14.7688C43.0258 14.7098 42.984 14.6858 42.939 14.66C42.4607 14.3874 41.9821 14.1148 41.5042 13.8418C41.0852 13.6024 40.6664 13.3625 40.2474 13.1231C40.2164 13.1054 40.186 13.07 40.1461 13.0944C40.1131 13.1147 40.1242 13.1542 40.1242 13.1859C40.1238 14.1758 40.1253 15.1659 40.1215 16.1558C40.1211 16.2543 40.1757 16.3043 40.2464 16.3545C40.7181 16.6892 41.1896 17.0244 41.6611 17.3597C41.8678 17.5068 42.0778 17.65 42.2798 17.803C42.4881 17.9608 42.5626 18.1736 42.4972 18.4173C42.4365 18.6439 42.2783 18.7849 42.0353 18.8467C41.8155 18.9025 41.6369 18.8315 41.4689 18.7117C41.0555 18.4173 40.6437 18.1211 40.2305 17.8265C40.2046 17.808 40.1811 17.7678 40.1441 17.7851C40.1077 17.8021 40.1244 17.8443 40.1244 17.8752C40.1234 18.3538 40.1244 18.8325 40.1234 19.311C40.1234 19.4159 40.1213 19.5227 40.0814 19.621C39.9671 19.9031 39.6531 20.0539 39.3418 19.9823C39.0677 19.9194 38.8645 19.6649 38.8635 19.3763C38.8617 18.9009 38.8629 18.4258 38.8629 17.9504C38.8629 17.9242 38.8639 17.8978 38.8625 17.8717C38.861 17.8463 38.8712 17.8139 38.8433 17.7995C38.8096 17.7822 38.7856 17.8129 38.7624 17.8294C38.5307 17.994 38.3004 18.1602 38.0689 18.3252C37.8705 18.4667 37.6749 18.6118 37.4717 18.7465C37.1567 18.9552 36.8115 18.8887 36.5893 18.6091C36.3919 18.3605 36.4603 17.9919 36.7421 17.7891C37.2582 17.4177 37.7771 17.0493 38.2944 16.6794C38.4596 16.5614 38.6229 16.441 38.7891 16.3246C38.8412 16.288 38.8637 16.2457 38.8637 16.1839C38.8625 15.1808 38.8631 14.1777 38.8625 13.1746C38.8625 13.0806 38.8464 13.071 38.7637 13.1178C38.335 13.3609 37.9075 13.6058 37.4796 13.8505C37.0428 14.1 36.6118 14.3593 36.167 14.5949C36.007 14.6797 35.9634 14.7884 35.9493 14.9434C35.9047 15.435 35.8503 15.9255 35.7941 16.416C35.7654 16.6656 35.7342 16.9156 35.7184 17.167C35.6982 17.4905 35.4938 17.725 35.1767 17.7733C34.8807 17.8186 34.5824 17.6412 34.4953 17.3755C34.4406 17.2085 34.4761 17.0372 34.4879 16.8682C34.5001 16.6953 34.5187 16.5214 34.5468 16.3513C34.5877 16.1023 34.5733 15.8484 34.6345 15.6021C34.6427 15.5685 34.6582 15.5233 34.6254 15.5006C34.5929 15.4782 34.5634 15.5187 34.5359 15.5343C34.0627 15.8024 33.5927 16.0754 33.1172 16.3399C32.8454 16.4912 32.5008 16.416 32.314 16.1778C32.1052 15.9117 32.1538 15.5396 32.444 15.3529C32.7402 15.1625 33.0529 14.995 33.3591 14.8185C33.5387 14.7151 33.7198 14.6142 33.8996 14.5109C33.924 14.497 33.9662 14.4926 33.9589 14.4533C33.9536 14.4236 33.9193 14.4216 33.894 14.4118C33.3971 14.2188 32.8989 14.0288 32.4041 13.8314C31.989 13.6656 31.8708 13.2187 32.1581 12.891C32.323 12.703 32.6007 12.6182 32.9397 12.7553C33.4713 12.9703 34.0088 13.1725 34.5435 13.3804C34.763 13.4657 34.9832 13.5503 35.2011 13.6394C35.2908 13.6762 35.3641 13.6725 35.4518 13.6221C36.3386 13.1123 37.2289 12.6076 38.1171 12.1C38.3172 11.9857 38.2963 12.0081 38.1208 11.9074C37.4872 11.5435 36.8531 11.1805 36.2187 10.8178C35.9502 10.6643 35.6798 10.5141 35.4119 10.3597C35.3561 10.3274 35.3081 10.3247 35.2476 10.3485C34.7039 10.5621 34.1592 10.7733 33.6144 10.9844C33.3564 11.0843 33.0982 11.184 32.8384 11.28C32.519 11.398 32.1724 11.2383 32.0366 10.9147C31.9231 10.6441 32.0841 10.2948 32.3778 10.1805C32.8874 9.98264 33.3975 9.78635 33.9075 9.58966C33.93 9.58101 33.9579 9.5755 33.9598 9.54875C33.9622 9.51551 33.9269 9.5104 33.9048 9.49761C33.4422 9.23169 32.9798 8.96577 32.5163 8.70123C32.308 8.58224 32.1837 8.40699 32.1872 8.17864C32.1945 7.70738 32.7131 7.44205 33.1059 7.65919C33.5106 7.88302 33.9097 8.1157 34.3116 8.34425C34.3943 8.39126 34.4786 8.43571 34.5607 8.4835C34.6202 8.51812 34.6568 8.50986 34.638 8.43885C34.5747 8.19929 34.5871 7.95206 34.5522 7.70935C34.5183 7.47372 34.4838 7.23573 34.478 6.99656C34.4759 6.90864 34.4577 6.8223 34.471 6.73241C34.5117 6.45587 34.7496 6.24148 35.0419 6.22752C35.3544 6.21277 35.6074 6.39529 35.6879 6.67301C35.7224 6.7926 35.7244 6.91297 35.7339 7.03216C35.7637 7.40055 35.815 7.76678 35.8545 8.13399C35.8813 8.38339 35.8855 8.63613 35.9407 8.88356C35.964 8.9882 35.9655 9.09834 35.9684 9.20612C35.9702 9.27418 36.001 9.31135 36.0605 9.34479C36.4698 9.57432 36.8775 9.80601 37.2847 10.0387C37.7537 10.3068 38.2213 10.5772 38.6903 10.8453C38.7382 10.8728 38.7918 10.9318 38.8428 10.9025C38.8873 10.8772 38.861 10.8048 38.861 10.7536C38.8623 10.2751 38.8619 9.79638 38.8619 9.31784L38.8627 9.31764Z" fill="#FFCC00"/>
<path d="M38.8627 9.31764C38.8627 8.82927 38.8604 8.34071 38.8648 7.85234C38.8656 7.75931 38.8294 7.70128 38.754 7.64779C38.0745 7.16689 37.3944 6.68658 36.7202 6.199C36.5205 6.05463 36.4423 5.84733 36.4944 5.61288C36.5459 5.38059 36.6974 5.23111 36.9434 5.15952C37.1582 5.09697 37.3349 5.15657 37.5013 5.27458C37.9234 5.57433 38.3432 5.87663 38.7649 6.17697C38.7877 6.1933 38.8127 6.22595 38.8451 6.2051C38.8732 6.187 38.8625 6.15081 38.8625 6.1221C38.8631 5.63038 38.8577 5.13867 38.865 4.64696C38.8693 4.34819 39.0101 4.11571 39.309 4.02818C39.6856 3.91784 40.0695 4.14384 40.1036 4.49079C40.1546 5.01338 40.1135 5.53892 40.1253 6.06289C40.1265 6.116 40.0945 6.19212 40.148 6.2167C40.191 6.23637 40.2361 6.16773 40.2793 6.13724C40.6772 5.85598 41.0755 5.57511 41.4705 5.29031C41.5981 5.19846 41.739 5.12628 41.8947 5.13356C42.1374 5.14496 42.3385 5.24842 42.4507 5.46733C42.5872 5.73325 42.5154 6.02572 42.2666 6.20431C41.5935 6.68776 40.919 7.16945 40.2427 7.64897C40.1606 7.70718 40.1217 7.76875 40.122 7.86925C40.1253 8.84619 40.1238 9.82293 40.124 10.7999C40.124 10.9411 40.1321 10.9462 40.2553 10.8758C40.9783 10.4627 41.7008 10.0485 42.4239 9.63549C42.5772 9.54777 42.7302 9.45926 42.8869 9.37724C42.9828 9.32708 43.0275 9.26454 43.0378 9.15459C43.0709 8.80351 43.1074 8.45262 43.1482 8.10233C43.1763 7.86198 43.192 7.61946 43.2255 7.3799C43.2602 7.13109 43.248 6.87619 43.3241 6.63289C43.4016 6.38467 43.7038 6.19959 43.9649 6.2348C44.2977 6.27984 44.5302 6.50878 44.5286 6.80066C44.5269 7.10867 44.4761 7.41255 44.4349 7.71722C44.4223 7.81123 44.4172 7.90623 44.4132 8.00103C44.4072 8.13851 44.3816 8.27364 44.3657 8.40994C44.3622 8.44003 44.3458 8.48193 44.3804 8.50042C44.4087 8.51556 44.4372 8.48488 44.4626 8.47032C44.8374 8.25613 45.2107 8.03939 45.5867 7.82736C45.7221 7.75085 45.8488 7.65998 46.0028 7.61297C46.3234 7.51522 46.6889 7.69774 46.779 8.00693C46.8567 8.27403 46.7641 8.53031 46.5138 8.67881C46.0464 8.95594 45.5729 9.22343 45.1022 9.49545C45.0799 9.50843 45.0416 9.51118 45.0424 9.54265C45.0433 9.57865 45.0813 9.58199 45.1098 9.593C45.6163 9.78949 46.1242 9.98264 46.6281 10.1846C46.9018 10.2942 47.0415 10.568 46.9843 10.8488C46.9326 11.102 46.6616 11.3175 46.3836 11.3225C46.2823 11.3242 46.1862 11.2939 46.0936 11.2579C45.3868 10.9832 44.6805 10.707 43.9742 10.4315C43.9711 10.4303 43.9676 10.4295 43.9645 10.4279C43.7606 10.317 43.5876 10.3432 43.3813 10.4667C42.5772 10.9476 41.7578 11.4057 40.944 11.8722C40.8998 11.8976 40.8572 11.9263 40.8105 11.9465C40.7113 11.9892 40.746 12.0199 40.8142 12.0588C41.425 12.4078 42.035 12.7579 42.645 13.1078C42.9456 13.2803 43.2472 13.4514 43.5455 13.6274C43.6203 13.6717 43.6871 13.6797 43.7681 13.6479C44.1048 13.5151 44.443 13.3853 44.7808 13.2549C45.2494 13.0739 45.7163 12.8895 46.1874 12.7146C46.4727 12.6088 46.8284 12.7592 46.9411 13.0197C47.0856 13.3536 46.959 13.686 46.6198 13.8233C46.164 14.0076 45.7029 14.1799 45.244 14.3573C45.2186 14.3671 45.1892 14.3727 45.1683 14.388C45.1293 14.4171 45.0476 14.4026 45.0482 14.4625C45.0486 14.5082 45.1175 14.5196 45.1574 14.5426C45.5989 14.7975 46.0402 15.0526 46.4847 15.3028C46.7825 15.4706 46.9061 15.8301 46.7197 16.1251C46.5374 16.4135 46.1572 16.5012 45.8455 16.3236C45.3819 16.0594 44.9186 15.7943 44.4552 15.5298C44.4322 15.5168 44.4101 15.489 44.3824 15.5024C44.3483 15.5189 44.3603 15.5567 44.3653 15.5827C44.4147 15.8401 44.4234 16.1019 44.4513 16.3613C44.4827 16.6536 44.5437 16.9451 44.5284 17.2413C44.5098 17.6014 44.0622 17.8733 43.711 17.7379C43.4419 17.6343 43.3055 17.4445 43.2817 17.1676C43.2526 16.8291 43.2073 16.4917 43.1701 16.1538C43.1451 15.9263 43.1211 15.6987 43.0981 15.4711C43.0746 15.2371 43.0516 15.003 43.031 14.7688C43.0258 14.7098 42.984 14.6858 42.939 14.66C42.4607 14.3874 41.9821 14.1148 41.5042 13.8418C41.0852 13.6024 40.6664 13.3625 40.2474 13.1231C40.2164 13.1054 40.186 13.07 40.1461 13.0944C40.1131 13.1147 40.1242 13.1542 40.1242 13.1859C40.1238 14.1758 40.1253 15.1659 40.1215 16.1558C40.1211 16.2543 40.1757 16.3043 40.2464 16.3545C40.7181 16.6892 41.1896 17.0244 41.6611 17.3597C41.8678 17.5068 42.0778 17.65 42.2798 17.803C42.4881 17.9608 42.5626 18.1736 42.4972 18.4173C42.4365 18.6439 42.2783 18.7849 42.0353 18.8467C41.8155 18.9025 41.6369 18.8315 41.4689 18.7117C41.0555 18.4173 40.6437 18.1211 40.2305 17.8265C40.2046 17.808 40.1811 17.7678 40.1441 17.7851C40.1077 17.8021 40.1244 17.8443 40.1244 17.8752C40.1234 18.3538 40.1244 18.8325 40.1234 19.311C40.1234 19.4159 40.1213 19.5227 40.0814 19.621C39.9671 19.9031 39.6531 20.0539 39.3418 19.9823C39.0677 19.9194 38.8645 19.6649 38.8635 19.3763C38.8617 18.9009 38.8629 18.4258 38.8629 17.9504C38.8629 17.9242 38.8639 17.8978 38.8625 17.8717C38.861 17.8463 38.8712 17.8139 38.8433 17.7995C38.8096 17.7822 38.7856 17.8129 38.7624 17.8294C38.5307 17.994 38.3004 18.1602 38.0689 18.3252C37.8705 18.4667 37.6749 18.6118 37.4717 18.7465C37.1567 18.9552 36.8115 18.8887 36.5893 18.6091C36.3919 18.3605 36.4603 17.9919 36.7421 17.7891C37.2582 17.4177 37.7771 17.0493 38.2944 16.6794C38.4596 16.5614 38.6229 16.441 38.7891 16.3246C38.8412 16.288 38.8637 16.2457 38.8637 16.1839C38.8625 15.1808 38.8631 14.1777 38.8625 13.1746C38.8625 13.0806 38.8464 13.071 38.7637 13.1178C38.335 13.3609 37.9075 13.6058 37.4796 13.8505C37.0428 14.1 36.6118 14.3593 36.167 14.5949C36.007 14.6797 35.9634 14.7884 35.9493 14.9434C35.9047 15.435 35.8503 15.9255 35.7941 16.416C35.7654 16.6656 35.7342 16.9156 35.7184 17.167C35.6982 17.4905 35.4938 17.725 35.1767 17.7733C34.8807 17.8186 34.5824 17.6412 34.4953 17.3755C34.4406 17.2085 34.4761 17.0372 34.4879 16.8682C34.5001 16.6953 34.5187 16.5214 34.5468 16.3513C34.5877 16.1023 34.5733 15.8484 34.6345 15.6021C34.6427 15.5685 34.6582 15.5233 34.6254 15.5006C34.5929 15.4782 34.5634 15.5187 34.5359 15.5343C34.0627 15.8024 33.5927 16.0754 33.1172 16.3399C32.8454 16.4912 32.5008 16.416 32.314 16.1778C32.1052 15.9117 32.1538 15.5396 32.444 15.3529C32.7402 15.1625 33.0529 14.995 33.3591 14.8185C33.5387 14.7151 33.7198 14.6142 33.8996 14.5109C33.924 14.497 33.9662 14.4926 33.9589 14.4533C33.9536 14.4236 33.9193 14.4216 33.894 14.4118C33.3971 14.2188 32.8989 14.0288 32.4041 13.8314C31.989 13.6656 31.8708 13.2187 32.1581 12.891C32.323 12.703 32.6007 12.6182 32.9397 12.7553C33.4713 12.9703 34.0088 13.1725 34.5435 13.3804C34.763 13.4657 34.9832 13.5503 35.2011 13.6394C35.2908 13.6762 35.3641 13.6725 35.4518 13.6221C36.3386 13.1123 37.2289 12.6076 38.1171 12.1C38.3172 11.9857 38.2963 12.0081 38.1208 11.9074C37.4872 11.5435 36.8531 11.1805 36.2187 10.8178C35.9502 10.6643 35.6798 10.5141 35.4119 10.3597C35.3561 10.3274 35.3081 10.3247 35.2476 10.3485C34.7039 10.5621 34.1592 10.7733 33.6144 10.9844C33.3564 11.0843 33.0982 11.184 32.8384 11.28C32.519 11.398 32.1724 11.2383 32.0366 10.9147C31.9231 10.6441 32.0841 10.2948 32.3778 10.1805C32.8874 9.98264 33.3975 9.78635 33.9075 9.58966C33.93 9.58101 33.9579 9.5755 33.9598 9.54875C33.9622 9.51551 33.9269 9.5104 33.9048 9.49761C33.4422 9.23169 32.9798 8.96577 32.5163 8.70123C32.308 8.58224 32.1837 8.40699 32.1872 8.17864C32.1945 7.70738 32.7131 7.44205 33.1059 7.65919C33.5106 7.88302 33.9097 8.1157 34.3116 8.34425C34.3943 8.39126 34.4786 8.43571 34.5607 8.4835C34.6202 8.51812 34.6568 8.50986 34.638 8.43885C34.5747 8.19929 34.5871 7.95206 34.5522 7.70935C34.5183 7.47372 34.4838 7.23573 34.478 6.99656C34.4759 6.90864 34.4577 6.8223 34.471 6.73241C34.5117 6.45587 34.7496 6.24148 35.0419 6.22752C35.3544 6.21277 35.6074 6.39529 35.6879 6.67301C35.7224 6.7926 35.7244 6.91297 35.7339 7.03216C35.7637 7.40055 35.815 7.76678 35.8545 8.13399C35.8813 8.38339 35.8855 8.63613 35.9407 8.88356C35.964 8.9882 35.9655 9.09834 35.9684 9.20612C35.9702 9.27418 36.001 9.31135 36.0605 9.34479C36.4698 9.57432 36.8775 9.80601 37.2847 10.0387C37.7537 10.3068 38.2213 10.5772 38.6903 10.8453C38.7382 10.8728 38.7918 10.9318 38.8428 10.9025C38.8873 10.8772 38.861 10.8048 38.861 10.7536C38.8623 10.2751 38.8619 9.79638 38.8619 9.31784L38.8627 9.31764Z" stroke="#F9F9FA" stroke-width="8" mask="url(#path-2-outside-1_422_133)"/>
</svg>
