<svg width="45" height="33" viewBox="0 0 45 33" fill="none" xmlns="http://www.w3.org/2000/svg">
<path d="M43.9683 8.9395C44.3195 8.9395 44.6004 9.08358 44.804 9.36829C45.0077 9.65644 45.0534 9.96861 44.9375 10.3151L44.2352 12.3767C44.1193 12.8364 43.7962 13.0628 43.266 13.0628H40.7131C41.5945 13.5773 42.2968 14.2531 42.8235 15.0833C43.3503 15.9134 43.6136 16.8465 43.6136 17.8756V22.0023C43.6136 23.3779 43.1431 24.5819 42.2055 25.611V30.9384C42.2055 31.5112 42.0018 31.9983 41.591 32.3997C41.1801 32.801 40.6815 33 40.0951 33H35.8707C35.2842 33 34.7856 32.801 34.3747 32.3997C33.9639 31.9983 33.7602 31.5112 33.7602 30.9384V27.5011H11.2371V30.9384C11.2371 31.5112 11.0335 31.9983 10.6226 32.3997C10.2118 32.801 9.71313 33 9.1267 33H4.90231C4.31588 33 3.81724 32.801 3.40639 32.3997C2.99554 31.9983 2.79187 31.5112 2.79187 30.9384V25.611C1.85428 24.5785 1.38374 23.3779 1.38374 22.0023V17.8756C1.38374 16.843 1.6471 15.9134 2.17383 15.0833C2.70057 14.2531 3.40639 13.5808 4.28428 13.0628H1.73489C1.20816 13.0628 0.885095 12.833 0.765703 12.3767L0.0633926 10.3151C-0.0524886 9.97204 -0.0103499 9.65644 0.196831 9.36829C0.400501 9.08358 0.681425 8.9395 1.03258 8.9395H5.8715L6.57381 7.13513C7.39551 5.01518 8.77204 3.29657 10.7104 1.97931C12.6488 0.662058 14.7873 0 17.133 0H27.8678C30.2136 0 32.3556 0.658628 34.2905 1.97588C36.2253 3.29314 37.6054 5.01175 38.4271 7.13171L39.1294 8.93607H43.9683V8.9395ZM7.71857 22.6884H8.06973C9.24258 22.6884 10.0924 22.63 10.6226 22.5168C11.504 22.3453 11.943 21.944 11.943 21.3128C11.943 20.5684 11.4303 19.6937 10.4049 18.692C9.37953 17.6903 8.48409 17.1895 7.72208 17.1895C6.96008 17.1895 6.29991 17.4605 5.74157 18.0059C5.18323 18.5514 4.90582 19.1963 4.90582 19.9406C4.90582 20.685 5.18323 21.3299 5.74157 21.8754C6.29991 22.4208 6.96008 22.6918 7.72208 22.6918L7.71857 22.6884ZM11.8552 9.10759L10.5348 12.3733H34.466L33.1457 9.10759C32.7349 8.02017 32.0466 7.14543 31.0774 6.4868C30.1082 5.82817 29.0407 5.49886 27.8643 5.49886H17.1295C15.9567 5.49886 14.8856 5.82817 13.9165 6.4868C12.9473 7.14543 12.259 8.02017 11.8482 9.10759H11.8552ZM37.2823 22.6884C38.0443 22.6884 38.7045 22.4174 39.2628 21.8719C39.8212 21.3265 40.0986 20.6816 40.0986 19.9372C40.0986 19.1928 39.8212 18.5479 39.2628 18.0025C38.7045 17.4571 38.0443 17.1861 37.2823 17.1861C36.5203 17.1861 35.6249 17.6869 34.5995 18.6886C33.5741 19.6902 33.0614 20.565 33.0614 21.3094C33.0614 21.9405 33.5004 22.3419 34.3818 22.5134C34.9085 22.6266 35.7618 22.6849 36.9347 22.6849H37.2858L37.2823 22.6884Z" fill="#FFCC00"/>
</svg>
