<svg width="45" height="27" viewBox="0 0 45 27" fill="none" xmlns="http://www.w3.org/2000/svg">
<path d="M36.0578 8.99985C35.0104 8.99282 34.0122 9.16157 33.0772 9.485L30.7644 5.62491H36.557C37.4919 5.62491 38.2441 4.87258 38.2441 3.93744V1.68747C38.2441 0.752331 37.4919 0 36.557 0H33.3725C32.8945 0 32.4375 0.203903 32.1212 0.55546L29.485 3.48744L27.8822 0.815612C27.5729 0.30937 27.0246 0 26.4341 0H20.8103C20.1917 0 19.6856 0.506242 19.6856 1.12498V2.24996C19.6856 2.8687 20.1917 3.37494 20.8103 3.37494H25.4781L26.8278 5.62491H16.0231C14.7788 4.00072 12.8667 2.81245 9.00035 2.81245H5.09884C4.14983 2.81245 3.35546 3.58588 3.37655 4.53508C3.39061 5.44913 4.1428 6.1874 5.06369 6.1874H9.00035C10.7226 6.1874 11.7209 6.95379 12.3606 7.93112L11.5662 9.3725C10.6523 9.09829 9.67521 8.97173 8.66292 9.00688C3.9319 9.17563 0.114752 13.0498 0.00227629 17.7888C-0.1102 22.8582 3.96002 26.9996 9.00035 26.9996C13.1901 26.9996 16.712 24.1309 17.7172 20.2497H23.6363C24.5994 20.2497 25.3656 19.4481 25.3234 18.4849C25.1758 15.1732 26.5536 11.8967 29.2741 9.69594L30.1529 11.1584C28.2126 12.8248 26.9824 15.2997 27.0035 18.063C27.0387 22.9567 31.0245 26.9574 35.9172 26.9996C40.9505 27.0488 45.0419 22.9567 44.9997 17.9224C44.9505 13.0287 40.9505 9.03501 36.0578 8.99985ZM9.00035 23.6246C5.90023 23.6246 3.37655 21.1004 3.37655 17.9997C3.37655 14.899 5.90023 12.3748 9.00035 12.3748C9.2956 12.3748 9.59085 12.3959 9.87907 12.4451L6.96172 17.7466C6.34311 18.8716 7.15856 20.2497 8.43797 20.2497H14.1532C13.2815 22.2324 11.2991 23.6246 9.00035 23.6246ZM41.6113 18.3091C41.4567 21.1637 39.1509 23.4699 36.3039 23.6176C33.0632 23.7934 30.3708 21.2059 30.3708 17.9997C30.3708 16.495 30.9613 15.131 31.9244 14.1256L35.397 19.9192C35.7134 20.4536 36.4093 20.6223 36.9436 20.3059L37.9067 19.7294C38.4409 19.413 38.6096 18.7169 38.2933 18.1825L34.8768 12.4943C35.2424 12.417 35.615 12.3818 35.9946 12.3818C39.2001 12.3748 41.7801 15.0677 41.6113 18.3091Z" fill="#FFCC00"/>
</svg>
